<svg width="1296" height="91" viewBox="0 0 1296 91" fill="none" xmlns="http://www.w3.org/2000/svg">
<path d="M28.04 35.2C27.16 33.44 26.72 31.64 26.72 29.8C26.72 27.96 27.16 26.16 28.04 24.4H28.832C27.952 26.16 27.512 27.96 27.512 29.8C27.512 31.64 27.952 33.44 28.832 35.2H28.04ZM32.8235 34.144C31.9195 34.144 31.1675 33.844 30.5675 33.244C29.9675 32.636 29.6675 31.888 29.6675 31C29.6675 30.112 29.9675 29.368 30.5675 28.768C31.1675 28.16 31.9195 27.856 32.8235 27.856C33.4155 27.856 33.9475 28 34.4195 28.288C34.8915 28.568 35.2355 28.948 35.4515 29.428L34.8035 29.8C34.6435 29.44 34.3835 29.156 34.0235 28.948C33.6715 28.732 33.2715 28.624 32.8235 28.624C32.1595 28.624 31.5995 28.856 31.1435 29.32C30.6875 29.776 30.4595 30.336 30.4595 31C30.4595 31.664 30.6875 32.228 31.1435 32.692C31.5995 33.148 32.1595 33.376 32.8235 33.376C33.2715 33.376 33.6715 33.272 34.0235 33.064C34.3755 32.848 34.6515 32.56 34.8515 32.2L35.5115 32.584C35.2635 33.064 34.8995 33.444 34.4195 33.724C33.9395 34.004 33.4075 34.144 32.8235 34.144ZM36.9606 35.2H36.1686C37.0486 33.44 37.4886 31.64 37.4886 29.8C37.4886 27.96 37.0486 26.16 36.1686 24.4H36.9606C37.8406 26.16 38.2806 27.96 38.2806 29.8C38.2806 31.64 37.8406 33.44 36.9606 35.2ZM42.4761 34V33.244L45.5001 30.196C46.3641 29.332 46.7961 28.592 46.7961 27.976C46.7961 27.44 46.6281 27.024 46.2921 26.728C45.9641 26.424 45.5681 26.272 45.1041 26.272C44.2401 26.272 43.6121 26.668 43.2201 27.46L42.5121 27.04C42.7761 26.52 43.1361 26.128 43.5921 25.864C44.0481 25.592 44.5521 25.456 45.1041 25.456C45.7761 25.456 46.3641 25.684 46.8681 26.14C47.3801 26.588 47.6361 27.2 47.6361 27.976C47.6361 28.464 47.5001 28.932 47.2281 29.38C46.9561 29.828 46.5721 30.3 46.0761 30.796L43.6761 33.184H47.8161V34H42.4761ZM54.3036 32.968C53.7516 33.752 52.9716 34.144 51.9636 34.144C50.9556 34.144 50.1716 33.752 49.6116 32.968C49.0596 32.176 48.7836 31.12 48.7836 29.8C48.7836 28.48 49.0596 27.428 49.6116 26.644C50.1716 25.852 50.9556 25.456 51.9636 25.456C52.9716 25.456 53.7516 25.852 54.3036 26.644C54.8636 27.428 55.1436 28.48 55.1436 29.8C55.1436 31.12 54.8636 32.176 54.3036 32.968ZM50.2356 32.404C50.6516 33.02 51.2276 33.328 51.9636 33.328C52.6996 33.328 53.2716 33.02 53.6796 32.404C54.0956 31.788 54.3036 30.92 54.3036 29.8C54.3036 28.68 54.0956 27.812 53.6796 27.196C53.2716 26.58 52.6996 26.272 51.9636 26.272C51.2276 26.272 50.6516 26.58 50.2356 27.196C49.8276 27.812 49.6236 28.68 49.6236 29.8C49.6236 30.92 49.8276 31.788 50.2356 32.404ZM56.105 34V33.244L59.129 30.196C59.993 29.332 60.425 28.592 60.425 27.976C60.425 27.44 60.257 27.024 59.921 26.728C59.593 26.424 59.197 26.272 58.733 26.272C57.869 26.272 57.241 26.668 56.849 27.46L56.141 27.04C56.405 26.52 56.765 26.128 57.221 25.864C57.677 25.592 58.181 25.456 58.733 25.456C59.405 25.456 59.993 25.684 60.497 26.14C61.009 26.588 61.265 27.2 61.265 27.976C61.265 28.464 61.129 28.932 60.857 29.38C60.585 29.828 60.201 30.3 59.705 30.796L57.305 33.184H61.445V34H56.105ZM64.3297 25.6H65.0497V34H64.2097V26.524L62.3257 27.088L62.1097 26.368L64.3297 25.6ZM67.8558 33.928C67.7278 34.056 67.5718 34.12 67.3878 34.12C67.2038 34.12 67.0478 34.056 66.9198 33.928C66.7918 33.8 66.7278 33.644 66.7278 33.46C66.7278 33.276 66.7918 33.12 66.9198 32.992C67.0478 32.864 67.2038 32.8 67.3878 32.8C67.5718 32.8 67.7278 32.864 67.8558 32.992C67.9838 33.12 68.0478 33.276 68.0478 33.46C68.0478 33.644 67.9838 33.8 67.8558 33.928ZM78.7334 33.208H79.6334V35.608H78.7934V34H72.7334V25.6H73.5734V33.208H77.8934V25.6H78.7334V33.208ZM83.4362 27.856C84.3242 27.856 85.0402 28.172 85.5842 28.804C86.1362 29.428 86.4122 30.168 86.4122 31.024C86.4122 31.112 86.4042 31.236 86.3882 31.396H81.1202C81.2002 32.004 81.4562 32.488 81.8882 32.848C82.3282 33.2 82.8682 33.376 83.5082 33.376C83.9642 33.376 84.3562 33.284 84.6842 33.1C85.0202 32.908 85.2722 32.66 85.4402 32.356L86.1362 32.764C85.8722 33.188 85.5122 33.524 85.0562 33.772C84.6002 34.02 84.0802 34.144 83.4962 34.144C82.5522 34.144 81.7842 33.848 81.1922 33.256C80.6002 32.664 80.3042 31.912 80.3042 31C80.3042 30.104 80.5962 29.356 81.1802 28.756C81.7642 28.156 82.5162 27.856 83.4362 27.856ZM83.4362 28.624C82.8122 28.624 82.2882 28.812 81.8642 29.188C81.4482 29.556 81.2002 30.036 81.1202 30.628H85.5962C85.5162 29.996 85.2722 29.504 84.8642 29.152C84.4562 28.8 83.9802 28.624 83.4362 28.624ZM91.92 28H92.712V34H91.92V31.384H88.464V34H87.672V28H88.464V30.616H91.92V28ZM98.7069 28V28.768H96.5829V34H95.7909V28.768H93.6669V28H98.7069ZM102.888 27.856C103.744 27.856 104.472 28.16 105.072 28.768C105.68 29.376 105.984 30.12 105.984 31C105.984 31.88 105.68 32.624 105.072 33.232C104.472 33.84 103.744 34.144 102.888 34.144C101.824 34.144 101.016 33.704 100.464 32.824V36.4H99.672V28H100.464V29.176C101.016 28.296 101.824 27.856 102.888 27.856ZM101.148 32.692C101.604 33.148 102.164 33.376 102.828 33.376C103.492 33.376 104.052 33.148 104.508 32.692C104.964 32.228 105.192 31.664 105.192 31C105.192 30.336 104.964 29.776 104.508 29.32C104.052 28.856 103.492 28.624 102.828 28.624C102.164 28.624 101.604 28.856 101.148 29.32C100.692 29.776 100.464 30.336 100.464 31C100.464 31.664 100.692 32.228 101.148 32.692ZM115.149 34H114.093L111.093 31.108V34H110.301V28H111.093V30.652L113.949 28H115.029L111.933 30.88L115.149 34ZM120.661 33.244C120.053 33.844 119.309 34.144 118.429 34.144C117.549 34.144 116.801 33.844 116.185 33.244C115.577 32.636 115.273 31.888 115.273 31C115.273 30.112 115.577 29.368 116.185 28.768C116.801 28.16 117.549 27.856 118.429 27.856C119.309 27.856 120.053 28.16 120.661 28.768C121.277 29.368 121.585 30.112 121.585 31C121.585 31.888 121.277 32.636 120.661 33.244ZM116.749 32.692C117.205 33.148 117.765 33.376 118.429 33.376C119.093 33.376 119.653 33.148 120.109 32.692C120.565 32.228 120.793 31.664 120.793 31C120.793 30.336 120.565 29.776 120.109 29.32C119.653 28.856 119.093 28.624 118.429 28.624C117.765 28.624 117.205 28.856 116.749 29.32C116.293 29.776 116.065 30.336 116.065 31C116.065 31.664 116.293 32.228 116.749 32.692ZM125.706 34.144C124.802 34.144 124.05 33.844 123.45 33.244C122.85 32.636 122.55 31.888 122.55 31C122.55 30.112 122.85 29.368 123.45 28.768C124.05 28.16 124.802 27.856 125.706 27.856C126.298 27.856 126.83 28 127.302 28.288C127.774 28.568 128.118 28.948 128.334 29.428L127.686 29.8C127.526 29.44 127.266 29.156 126.906 28.948C126.554 28.732 126.154 28.624 125.706 28.624C125.042 28.624 124.482 28.856 124.026 29.32C123.57 29.776 123.342 30.336 123.342 31C123.342 31.664 123.57 32.228 124.026 32.692C124.482 33.148 125.042 33.376 125.706 33.376C126.154 33.376 126.554 33.272 126.906 33.064C127.258 32.848 127.534 32.56 127.734 32.2L128.394 32.584C128.146 33.064 127.782 33.444 127.302 33.724C126.822 34.004 126.29 34.144 125.706 34.144ZM135.411 28V34H134.619V29.212L132.519 32.62H132.423L130.323 29.212V34H129.531V28H130.443L132.471 31.288L134.499 28H135.411ZM139.862 27.856C140.75 27.856 141.466 28.172 142.01 28.804C142.562 29.428 142.838 30.168 142.838 31.024C142.838 31.112 142.83 31.236 142.814 31.396H137.546C137.626 32.004 137.882 32.488 138.314 32.848C138.754 33.2 139.294 33.376 139.934 33.376C140.39 33.376 140.782 33.284 141.11 33.1C141.446 32.908 141.698 32.66 141.866 32.356L142.562 32.764C142.298 33.188 141.938 33.524 141.482 33.772C141.026 34.02 140.506 34.144 139.922 34.144C138.978 34.144 138.21 33.848 137.618 33.256C137.026 32.664 136.73 31.912 136.73 31C136.73 30.104 137.022 29.356 137.606 28.756C138.19 28.156 138.942 27.856 139.862 27.856ZM139.862 28.624C139.238 28.624 138.714 28.812 138.29 29.188C137.874 29.556 137.626 30.036 137.546 30.628H142.022C141.942 29.996 141.698 29.504 141.29 29.152C140.882 28.8 140.406 28.624 139.862 28.624ZM148.783 28V34H147.991V28.768H145.279V31.444C145.279 32.444 145.087 33.132 144.703 33.508C144.327 33.884 143.807 34.048 143.143 34V33.256C143.599 33.304 143.935 33.196 144.151 32.932C144.375 32.668 144.487 32.172 144.487 31.444V28H148.783ZM155.489 33.244C154.881 33.844 154.137 34.144 153.257 34.144C152.377 34.144 151.629 33.844 151.013 33.244C150.405 32.636 150.101 31.888 150.101 31C150.101 30.112 150.405 29.368 151.013 28.768C151.629 28.16 152.377 27.856 153.257 27.856C154.137 27.856 154.881 28.16 155.489 28.768C156.105 29.368 156.413 30.112 156.413 31C156.413 31.888 156.105 32.636 155.489 33.244ZM151.577 32.692C152.033 33.148 152.593 33.376 153.257 33.376C153.921 33.376 154.481 33.148 154.937 32.692C155.393 32.228 155.621 31.664 155.621 31C155.621 30.336 155.393 29.776 154.937 29.32C154.481 28.856 153.921 28.624 153.257 28.624C152.593 28.624 152.033 28.856 151.577 29.32C151.121 29.776 150.893 30.336 150.893 31C150.893 31.664 151.121 32.228 151.577 32.692ZM161.578 28V28.768H158.53V34H157.738V28H161.578ZM166.911 28H167.583V34H166.791V29.38L163.215 34H162.543V28H163.335V32.62L166.911 28ZM173.626 28H174.298V34H173.506V29.38L169.93 34H169.258V28H170.05V32.62L173.626 28ZM176.981 33.928C176.853 34.056 176.697 34.12 176.513 34.12C176.329 34.12 176.173 34.056 176.045 33.928C175.917 33.8 175.853 33.644 175.853 33.46C175.853 33.276 175.917 33.12 176.045 32.992C176.173 32.864 176.329 32.8 176.513 32.8C176.697 32.8 176.853 32.864 176.981 32.992C177.109 33.12 177.173 33.276 177.173 33.46C177.173 33.644 177.109 33.8 176.981 33.928ZM186.514 29.644C186.922 29.82 187.246 30.088 187.486 30.448C187.734 30.8 187.858 31.204 187.858 31.66C187.858 32.308 187.63 32.86 187.174 33.316C186.718 33.772 186.166 34 185.518 34H181.858V25.6H185.242C185.866 25.6 186.398 25.824 186.838 26.272C187.278 26.712 187.498 27.24 187.498 27.856C187.498 28.64 187.17 29.236 186.514 29.644ZM185.242 26.392H182.698V29.32H185.242C185.634 29.32 185.966 29.18 186.238 28.9C186.518 28.612 186.658 28.264 186.658 27.856C186.658 27.456 186.518 27.112 186.238 26.824C185.966 26.536 185.634 26.392 185.242 26.392ZM185.518 33.208C185.934 33.208 186.286 33.06 186.574 32.764C186.87 32.46 187.018 32.092 187.018 31.66C187.018 31.236 186.87 30.872 186.574 30.568C186.286 30.264 185.934 30.112 185.518 30.112H182.698V33.208H185.518ZM191.976 34.144C191.072 34.144 190.32 33.844 189.72 33.244C189.12 32.636 188.82 31.888 188.82 31C188.82 30.112 189.12 29.368 189.72 28.768C190.32 28.16 191.072 27.856 191.976 27.856C192.568 27.856 193.1 28 193.572 28.288C194.044 28.568 194.388 28.948 194.604 29.428L193.956 29.8C193.796 29.44 193.536 29.156 193.176 28.948C192.824 28.732 192.424 28.624 191.976 28.624C191.312 28.624 190.752 28.856 190.296 29.32C189.84 29.776 189.612 30.336 189.612 31C189.612 31.664 189.84 32.228 190.296 32.692C190.752 33.148 191.312 33.376 191.976 33.376C192.424 33.376 192.824 33.272 193.176 33.064C193.528 32.848 193.804 32.56 194.004 32.2L194.664 32.584C194.416 33.064 194.052 33.444 193.572 33.724C193.092 34.004 192.56 34.144 191.976 34.144ZM198.514 27.856C199.402 27.856 200.118 28.172 200.662 28.804C201.214 29.428 201.49 30.168 201.49 31.024C201.49 31.112 201.482 31.236 201.466 31.396H196.198C196.278 32.004 196.534 32.488 196.966 32.848C197.406 33.2 197.946 33.376 198.586 33.376C199.042 33.376 199.434 33.284 199.762 33.1C200.098 32.908 200.35 32.66 200.518 32.356L201.214 32.764C200.95 33.188 200.59 33.524 200.134 33.772C199.678 34.02 199.158 34.144 198.574 34.144C197.63 34.144 196.862 33.848 196.27 33.256C195.678 32.664 195.382 31.912 195.382 31C195.382 30.104 195.674 29.356 196.258 28.756C196.842 28.156 197.594 27.856 198.514 27.856ZM198.514 28.624C197.89 28.624 197.366 28.812 196.942 29.188C196.526 29.556 196.278 30.036 196.198 30.628H200.674C200.594 29.996 200.35 29.504 199.942 29.152C199.534 28.8 199.058 28.624 198.514 28.624ZM210.79 28V34H209.998V28.768H206.542V34H205.75V28H210.79ZM215.681 27.856C216.537 27.856 217.265 28.16 217.865 28.768C218.473 29.376 218.777 30.12 218.777 31C218.777 31.88 218.473 32.624 217.865 33.232C217.265 33.84 216.537 34.144 215.681 34.144C214.617 34.144 213.809 33.704 213.257 32.824V36.4H212.465V28H213.257V29.176C213.809 28.296 214.617 27.856 215.681 27.856ZM213.941 32.692C214.397 33.148 214.957 33.376 215.621 33.376C216.285 33.376 216.845 33.148 217.301 32.692C217.757 32.228 217.985 31.664 217.985 31C217.985 30.336 217.757 29.776 217.301 29.32C216.845 28.856 216.285 28.624 215.621 28.624C214.957 28.624 214.397 28.856 213.941 29.32C213.485 29.776 213.257 30.336 213.257 31C213.257 31.664 213.485 32.228 213.941 32.692ZM225.254 28H226.046V34H225.254V32.824C224.702 33.704 223.894 34.144 222.83 34.144C221.974 34.144 221.242 33.84 220.634 33.232C220.034 32.624 219.734 31.88 219.734 31C219.734 30.12 220.034 29.376 220.634 28.768C221.242 28.16 221.974 27.856 222.83 27.856C223.894 27.856 224.702 28.296 225.254 29.176V28ZM221.21 32.692C221.666 33.148 222.226 33.376 222.89 33.376C223.554 33.376 224.114 33.148 224.57 32.692C225.026 32.228 225.254 31.664 225.254 31C225.254 30.336 225.026 29.776 224.57 29.32C224.114 28.856 223.554 28.624 222.89 28.624C222.226 28.624 221.666 28.856 221.21 29.32C220.754 29.776 220.526 30.336 220.526 31C220.526 31.664 220.754 32.228 221.21 32.692ZM231.539 30.916C232.195 31.156 232.523 31.624 232.523 32.32C232.523 32.808 232.359 33.212 232.031 33.532C231.711 33.844 231.247 34 230.639 34H227.723V28H230.399C230.983 28 231.435 28.152 231.755 28.456C232.075 28.752 232.235 29.136 232.235 29.608C232.235 30.208 232.003 30.644 231.539 30.916ZM230.399 28.768H228.515V30.592H230.399C231.095 30.592 231.443 30.28 231.443 29.656C231.443 29.376 231.351 29.16 231.167 29.008C230.991 28.848 230.735 28.768 230.399 28.768ZM230.639 33.232C230.991 33.232 231.259 33.148 231.443 32.98C231.635 32.812 231.731 32.576 231.731 32.272C231.731 31.992 231.635 31.772 231.443 31.612C231.259 31.444 230.991 31.36 230.639 31.36H228.515V33.232H230.639ZM238.883 28H239.675V34H238.883V32.824C238.331 33.704 237.523 34.144 236.459 34.144C235.603 34.144 234.871 33.84 234.263 33.232C233.663 32.624 233.363 31.88 233.363 31C233.363 30.12 233.663 29.376 234.263 28.768C234.871 28.16 235.603 27.856 236.459 27.856C237.523 27.856 238.331 28.296 238.883 29.176V28ZM234.839 32.692C235.295 33.148 235.855 33.376 236.519 33.376C237.183 33.376 237.743 33.148 238.199 32.692C238.655 32.228 238.883 31.664 238.883 31C238.883 30.336 238.655 29.776 238.199 29.32C237.743 28.856 237.183 28.624 236.519 28.624C235.855 28.624 235.295 28.856 234.839 29.32C234.383 29.776 234.155 30.336 234.155 31C234.155 31.664 234.383 32.228 234.839 32.692ZM247.448 30.916C248.144 31.18 248.492 31.66 248.492 32.356C248.492 32.852 248.296 33.276 247.904 33.628C247.52 33.972 246.968 34.144 246.248 34.144C245.04 34.144 244.248 33.664 243.872 32.704L244.544 32.308C244.792 33.02 245.36 33.376 246.248 33.376C246.712 33.376 247.068 33.276 247.316 33.076C247.572 32.876 247.7 32.62 247.7 32.308C247.7 32.028 247.596 31.8 247.388 31.624C247.18 31.448 246.9 31.36 246.548 31.36H245.672V30.592H246.308C246.652 30.592 246.92 30.508 247.112 30.34C247.312 30.164 247.412 29.924 247.412 29.62C247.412 29.332 247.296 29.096 247.064 28.912C246.832 28.72 246.52 28.624 246.128 28.624C245.376 28.624 244.876 28.924 244.628 29.524L243.968 29.14C244.368 28.284 245.088 27.856 246.128 27.856C246.76 27.856 247.264 28.024 247.64 28.36C248.016 28.688 248.204 29.092 248.204 29.572C248.204 30.188 247.952 30.636 247.448 30.916ZM254.855 28H255.647V34H254.855V32.824C254.303 33.704 253.495 34.144 252.431 34.144C251.575 34.144 250.843 33.84 250.235 33.232C249.635 32.624 249.335 31.88 249.335 31C249.335 30.12 249.635 29.376 250.235 28.768C250.843 28.16 251.575 27.856 252.431 27.856C253.495 27.856 254.303 28.296 254.855 29.176V28ZM250.811 32.692C251.267 33.148 251.827 33.376 252.491 33.376C253.155 33.376 253.715 33.148 254.171 32.692C254.627 32.228 254.855 31.664 254.855 31C254.855 30.336 254.627 29.776 254.171 29.32C253.715 28.856 253.155 28.624 252.491 28.624C251.827 28.624 251.267 28.856 250.811 29.32C250.355 29.776 250.127 30.336 250.127 31C250.127 31.664 250.355 32.228 250.811 32.692ZM265.364 33.232H266.204V35.608H265.412V34H257.324V28H258.116V33.232H260.948V28H261.74V33.232H264.572V28H265.364V33.232ZM271.771 28H272.443V34H271.651V29.38L268.075 34H267.403V28H268.195V32.62L271.771 28ZM282.157 33.232H282.997V35.608H282.205V34H274.117V28H274.909V33.232H277.741V28H278.533V33.232H281.365V28H282.157V33.232ZM286.733 27.856C287.621 27.856 288.337 28.172 288.881 28.804C289.433 29.428 289.709 30.168 289.709 31.024C289.709 31.112 289.701 31.236 289.685 31.396H284.417C284.497 32.004 284.753 32.488 285.185 32.848C285.625 33.2 286.165 33.376 286.805 33.376C287.261 33.376 287.653 33.284 287.981 33.1C288.317 32.908 288.569 32.66 288.737 32.356L289.433 32.764C289.169 33.188 288.809 33.524 288.353 33.772C287.897 34.02 287.377 34.144 286.793 34.144C285.849 34.144 285.081 33.848 284.489 33.256C283.897 32.664 283.601 31.912 283.601 31C283.601 30.104 283.893 29.356 284.477 28.756C285.061 28.156 285.813 27.856 286.733 27.856ZM286.733 28.624C286.109 28.624 285.585 28.812 285.161 29.188C284.745 29.556 284.497 30.036 284.417 30.628H288.893C288.813 29.996 288.569 29.504 288.161 29.152C287.753 28.8 287.277 28.624 286.733 28.624ZM295.217 28H296.009V34H295.217V31.384H291.761V34H290.969V28H291.761V30.616H295.217V28ZM300.12 30.28C300.68 30.28 301.152 30.456 301.536 30.808C301.928 31.152 302.124 31.596 302.124 32.14C302.124 32.684 301.928 33.132 301.536 33.484C301.152 33.828 300.68 34 300.12 34H297.684V28H298.476V30.28H300.12ZM302.964 28H303.756V34H302.964V28ZM300.12 33.232C300.456 33.232 300.74 33.132 300.972 32.932C301.212 32.732 301.332 32.468 301.332 32.14C301.332 31.812 301.212 31.548 300.972 31.348C300.74 31.148 300.456 31.048 300.12 31.048H298.476V33.232H300.12ZM306.45 33.928C306.322 34.056 306.166 34.12 305.982 34.12C305.798 34.12 305.642 34.056 305.514 33.928C305.386 33.8 305.322 33.644 305.322 33.46C305.322 33.276 305.386 33.12 305.514 32.992C305.642 32.864 305.798 32.8 305.982 32.8C306.166 32.8 306.322 32.864 306.45 32.992C306.578 33.12 306.642 33.276 306.642 33.46C306.642 33.644 306.578 33.8 306.45 33.928ZM32.36 43.6H33.2V52H32.36V48.076H27.8V52H26.96V43.6H27.8V47.284H32.36V43.6ZM40.1562 46H40.9483V52H40.1562V50.824C39.6043 51.704 38.7963 52.144 37.7323 52.144C36.8763 52.144 36.1443 51.84 35.5363 51.232C34.9363 50.624 34.6363 49.88 34.6363 49C34.6363 48.12 34.9363 47.376 35.5363 46.768C36.1443 46.16 36.8763 45.856 37.7323 45.856C38.7963 45.856 39.6043 46.296 40.1562 47.176V46ZM36.1123 50.692C36.5683 51.148 37.1283 51.376 37.7923 51.376C38.4563 51.376 39.0163 51.148 39.4723 50.692C39.9283 50.228 40.1562 49.664 40.1562 49C40.1562 48.336 39.9283 47.776 39.4723 47.32C39.0163 46.856 38.4563 46.624 37.7923 46.624C37.1283 46.624 36.5683 46.856 36.1123 47.32C35.6563 47.776 35.4283 48.336 35.4283 49C35.4283 49.664 35.6563 50.228 36.1123 50.692ZM49.8732 46H50.6652V52H42.6252V46H43.4172V51.232H46.2492V46H47.0412V51.232H49.8732V46ZM56.708 46H57.38V52H56.588V47.38L53.012 52H52.34V46H53.132V50.62L56.708 46ZM64.8508 52.144C63.9468 52.144 63.1948 51.844 62.5948 51.244C61.9948 50.636 61.6948 49.888 61.6948 49C61.6948 48.112 61.9948 47.368 62.5948 46.768C63.1948 46.16 63.9468 45.856 64.8508 45.856C65.4428 45.856 65.9748 46 66.4468 46.288C66.9188 46.568 67.2628 46.948 67.4788 47.428L66.8308 47.8C66.6708 47.44 66.4108 47.156 66.0508 46.948C65.6988 46.732 65.2988 46.624 64.8508 46.624C64.1868 46.624 63.6268 46.856 63.1708 47.32C62.7148 47.776 62.4868 48.336 62.4868 49C62.4868 49.664 62.7148 50.228 63.1708 50.692C63.6268 51.148 64.1868 51.376 64.8508 51.376C65.2988 51.376 65.6988 51.272 66.0508 51.064C66.4028 50.848 66.6788 50.56 66.8788 50.2L67.5388 50.584C67.2908 51.064 66.9268 51.444 66.4468 51.724C65.9668 52.004 65.4348 52.144 64.8508 52.144ZM71.3893 45.856C72.2773 45.856 72.9933 46.172 73.5373 46.804C74.0893 47.428 74.3653 48.168 74.3653 49.024C74.3653 49.112 74.3573 49.236 74.3413 49.396H69.0733C69.1533 50.004 69.4093 50.488 69.8413 50.848C70.2813 51.2 70.8213 51.376 71.4613 51.376C71.9173 51.376 72.3093 51.284 72.6373 51.1C72.9733 50.908 73.2253 50.66 73.3933 50.356L74.0893 50.764C73.8253 51.188 73.4653 51.524 73.0093 51.772C72.5533 52.02 72.0333 52.144 71.4493 52.144C70.5053 52.144 69.7373 51.848 69.1453 51.256C68.5533 50.664 68.2573 49.912 68.2573 49C68.2573 48.104 68.5493 47.356 69.1333 46.756C69.7173 46.156 70.4693 45.856 71.3893 45.856ZM71.3893 46.624C70.7653 46.624 70.2413 46.812 69.8173 47.188C69.4013 47.556 69.1533 48.036 69.0733 48.628H73.5493C73.4693 47.996 73.2253 47.504 72.8173 47.152C72.4093 46.8 71.9333 46.624 71.3893 46.624ZM78.8412 45.856C79.6972 45.856 80.4252 46.16 81.0252 46.768C81.6332 47.376 81.9372 48.12 81.9372 49C81.9372 49.88 81.6332 50.624 81.0252 51.232C80.4252 51.84 79.6972 52.144 78.8412 52.144C77.7772 52.144 76.9692 51.704 76.4172 50.824V54.4H75.6252V46H76.4172V47.176C76.9692 46.296 77.7772 45.856 78.8412 45.856ZM77.1012 50.692C77.5572 51.148 78.1172 51.376 78.7812 51.376C79.4452 51.376 80.0052 51.148 80.4612 50.692C80.9172 50.228 81.1452 49.664 81.1452 49C81.1452 48.336 80.9172 47.776 80.4612 47.32C80.0052 46.856 79.4452 46.624 78.7812 46.624C78.1172 46.624 77.5572 46.856 77.1012 47.32C76.6452 47.776 76.4172 48.336 76.4172 49C76.4172 49.664 76.6452 50.228 77.1012 50.692ZM87.3397 46V46.768H85.2157V52H84.4237V46.768H82.2997V46H87.3397ZM92.6728 46H93.3448V52H92.5528V47.38L88.9768 52H88.3048V46H89.0968V50.62L92.6728 46ZM100.876 46.864C101.452 47.448 101.74 48.16 101.74 49C101.74 49.84 101.452 50.552 100.876 51.136C100.3 51.72 99.5397 52.052 98.5957 52.132V54.4H97.8037V52.132C96.8597 52.052 96.0997 51.72 95.5237 51.136C94.9477 50.552 94.6597 49.84 94.6597 49C94.6597 48.16 94.9477 47.448 95.5237 46.864C96.0997 46.28 96.8597 45.948 97.8037 45.868V43.6H98.5957V45.868C99.5397 45.948 100.3 46.28 100.876 46.864ZM96.0877 47.416C95.6637 47.848 95.4517 48.376 95.4517 49C95.4517 49.624 95.6637 50.156 96.0877 50.596C96.5117 51.028 97.0837 51.28 97.8037 51.352V46.648C97.0837 46.72 96.5117 46.976 96.0877 47.416ZM98.5957 51.352C99.3157 51.28 99.8877 51.028 100.312 50.596C100.736 50.156 100.948 49.624 100.948 49C100.948 48.376 100.736 47.848 100.312 47.416C99.8877 46.976 99.3157 46.72 98.5957 46.648V51.352ZM107.427 46H108.099V52H107.307V47.38L103.731 52H103.059V46H103.851V50.62L107.427 46ZM114.622 52H113.566L110.566 49.108V52H109.774V46H110.566V48.652L113.422 46H114.502L111.406 48.88L114.622 52ZM120.266 46H121.058V52H120.266V50.824C119.714 51.704 118.906 52.144 117.842 52.144C116.986 52.144 116.254 51.84 115.646 51.232C115.046 50.624 114.746 49.88 114.746 49C114.746 48.12 115.046 47.376 115.646 46.768C116.254 46.16 116.986 45.856 117.842 45.856C118.906 45.856 119.714 46.296 120.266 47.176V46ZM116.222 50.692C116.678 51.148 117.238 51.376 117.902 51.376C118.566 51.376 119.126 51.148 119.582 50.692C120.038 50.228 120.266 49.664 120.266 49C120.266 48.336 120.038 47.776 119.582 47.32C119.126 46.856 118.566 46.624 117.902 46.624C117.238 46.624 116.678 46.856 116.222 47.32C115.766 47.776 115.538 48.336 115.538 49C115.538 49.664 115.766 50.228 116.222 50.692ZM127.055 46V46.768H124.931V52H124.139V46.768H122.015V46H127.055ZM130.456 48.28C131.016 48.28 131.488 48.456 131.872 48.808C132.264 49.152 132.46 49.596 132.46 50.14C132.46 50.684 132.264 51.132 131.872 51.484C131.488 51.828 131.016 52 130.456 52H128.02V46H128.812V48.28H130.456ZM133.3 46H134.092V52H133.3V46ZM130.456 51.232C130.792 51.232 131.076 51.132 131.308 50.932C131.548 50.732 131.668 50.468 131.668 50.14C131.668 49.812 131.548 49.548 131.308 49.348C131.076 49.148 130.792 49.048 130.456 49.048H128.812V51.232H130.456ZM143.026 46H143.818V52H143.026V49.384H139.57V52H138.778V46H139.57V48.616H143.026V46ZM150.652 46H151.444V52H150.652V50.824C150.1 51.704 149.292 52.144 148.228 52.144C147.372 52.144 146.64 51.84 146.032 51.232C145.432 50.624 145.132 49.88 145.132 49C145.132 48.12 145.432 47.376 146.032 46.768C146.64 46.16 147.372 45.856 148.228 45.856C149.292 45.856 150.1 46.296 150.652 47.176V46ZM146.608 50.692C147.064 51.148 147.624 51.376 148.288 51.376C148.952 51.376 149.512 51.148 149.968 50.692C150.424 50.228 150.652 49.664 150.652 49C150.652 48.336 150.424 47.776 149.968 47.32C149.512 46.856 148.952 46.624 148.288 46.624C147.624 46.624 147.064 46.856 146.608 47.32C146.152 47.776 145.924 48.336 145.924 49C145.924 49.664 146.152 50.228 146.608 50.692ZM161.149 51.244C160.541 51.844 159.797 52.144 158.917 52.144C158.037 52.144 157.289 51.844 156.673 51.244C156.065 50.636 155.761 49.888 155.761 49C155.761 48.112 156.065 47.368 156.673 46.768C157.289 46.16 158.037 45.856 158.917 45.856C159.797 45.856 160.541 46.16 161.149 46.768C161.765 47.368 162.073 48.112 162.073 49C162.073 49.888 161.765 50.636 161.149 51.244ZM157.237 50.692C157.693 51.148 158.253 51.376 158.917 51.376C159.581 51.376 160.141 51.148 160.597 50.692C161.053 50.228 161.281 49.664 161.281 49C161.281 48.336 161.053 47.776 160.597 47.32C160.141 46.856 159.581 46.624 158.917 46.624C158.253 46.624 157.693 46.856 157.237 47.32C156.781 47.776 156.553 48.336 156.553 49C156.553 49.664 156.781 50.228 157.237 50.692ZM166.195 52.144C165.291 52.144 164.539 51.844 163.939 51.244C163.339 50.636 163.039 49.888 163.039 49C163.039 48.112 163.339 47.368 163.939 46.768C164.539 46.16 165.291 45.856 166.195 45.856C166.787 45.856 167.319 46 167.791 46.288C168.263 46.568 168.607 46.948 168.823 47.428L168.175 47.8C168.015 47.44 167.755 47.156 167.395 46.948C167.043 46.732 166.643 46.624 166.195 46.624C165.531 46.624 164.971 46.856 164.515 47.32C164.059 47.776 163.831 48.336 163.831 49C163.831 49.664 164.059 50.228 164.515 50.692C164.971 51.148 165.531 51.376 166.195 51.376C166.643 51.376 167.043 51.272 167.395 51.064C167.747 50.848 168.023 50.56 168.223 50.2L168.883 50.584C168.635 51.064 168.271 51.444 167.791 51.724C167.311 52.004 166.779 52.144 166.195 52.144ZM174.105 46H174.945L172.377 52.552C172.145 53.144 171.813 53.608 171.381 53.944C170.957 54.288 170.481 54.44 169.953 54.4V53.656C170.673 53.736 171.221 53.32 171.597 52.408L171.753 52.036L169.065 46H169.905L172.161 51.028L174.105 46ZM183.943 51.232H184.783V53.608H183.991V52H175.903V46H176.695V51.232H179.527V46H180.319V51.232H183.151V46H183.943V51.232ZM188.518 45.856C189.406 45.856 190.122 46.172 190.666 46.804C191.218 47.428 191.494 48.168 191.494 49.024C191.494 49.112 191.486 49.236 191.47 49.396H186.202C186.282 50.004 186.538 50.488 186.97 50.848C187.41 51.2 187.95 51.376 188.59 51.376C189.046 51.376 189.438 51.284 189.766 51.1C190.102 50.908 190.354 50.66 190.522 50.356L191.218 50.764C190.954 51.188 190.594 51.524 190.138 51.772C189.682 52.02 189.162 52.144 188.578 52.144C187.634 52.144 186.866 51.848 186.274 51.256C185.682 50.664 185.386 49.912 185.386 49C185.386 48.104 185.678 47.356 186.262 46.756C186.846 46.156 187.598 45.856 188.518 45.856ZM188.518 46.624C187.894 46.624 187.37 46.812 186.946 47.188C186.53 47.556 186.282 48.036 186.202 48.628H190.678C190.598 47.996 190.354 47.504 189.946 47.152C189.538 46.8 189.062 46.624 188.518 46.624ZM195.55 52.144C194.646 52.144 193.894 51.844 193.294 51.244C192.694 50.636 192.394 49.888 192.394 49C192.394 48.112 192.694 47.368 193.294 46.768C193.894 46.16 194.646 45.856 195.55 45.856C196.142 45.856 196.674 46 197.146 46.288C197.618 46.568 197.962 46.948 198.178 47.428L197.53 47.8C197.37 47.44 197.11 47.156 196.75 46.948C196.398 46.732 195.998 46.624 195.55 46.624C194.886 46.624 194.326 46.856 193.87 47.32C193.414 47.776 193.186 48.336 193.186 49C193.186 49.664 193.414 50.228 193.87 50.692C194.326 51.148 194.886 51.376 195.55 51.376C195.998 51.376 196.398 51.272 196.75 51.064C197.102 50.848 197.378 50.56 197.578 50.2L198.238 50.584C197.99 51.064 197.626 51.444 197.146 51.724C196.666 52.004 196.134 52.144 195.55 52.144ZM203.578 46V46.768H201.454V52H200.662V46.768H198.538V46H203.578ZM208.359 48.916C209.015 49.156 209.343 49.624 209.343 50.32C209.343 50.808 209.179 51.212 208.851 51.532C208.531 51.844 208.067 52 207.459 52H204.543V46H207.219C207.803 46 208.255 46.152 208.575 46.456C208.895 46.752 209.055 47.136 209.055 47.608C209.055 48.208 208.823 48.644 208.359 48.916ZM207.219 46.768H205.335V48.592H207.219C207.915 48.592 208.263 48.28 208.263 47.656C208.263 47.376 208.171 47.16 207.987 47.008C207.811 46.848 207.555 46.768 207.219 46.768ZM207.459 51.232C207.811 51.232 208.079 51.148 208.263 50.98C208.455 50.812 208.551 50.576 208.551 50.272C208.551 49.992 208.455 49.772 208.263 49.612C208.079 49.444 207.811 49.36 207.459 49.36H205.335V51.232H207.459ZM215.229 46V52H214.437V46.768H211.725V49.444C211.725 50.444 211.533 51.132 211.149 51.508C210.773 51.884 210.253 52.048 209.589 52V51.256C210.045 51.304 210.381 51.196 210.597 50.932C210.821 50.668 210.933 50.172 210.933 49.444V46H215.229ZM219.678 45.856C220.566 45.856 221.282 46.172 221.826 46.804C222.378 47.428 222.654 48.168 222.654 49.024C222.654 49.112 222.646 49.236 222.63 49.396H217.362C217.442 50.004 217.698 50.488 218.13 50.848C218.57 51.2 219.11 51.376 219.75 51.376C220.206 51.376 220.598 51.284 220.926 51.1C221.262 50.908 221.514 50.66 221.682 50.356L222.378 50.764C222.114 51.188 221.754 51.524 221.298 51.772C220.842 52.02 220.322 52.144 219.738 52.144C218.794 52.144 218.026 51.848 217.434 51.256C216.842 50.664 216.546 49.912 216.546 49C216.546 48.104 216.838 47.356 217.422 46.756C218.006 46.156 218.758 45.856 219.678 45.856ZM219.678 46.624C219.054 46.624 218.53 46.812 218.106 47.188C217.69 47.556 217.442 48.036 217.362 48.628H221.838C221.758 47.996 221.514 47.504 221.106 47.152C220.698 46.8 220.222 46.624 219.678 46.624ZM228.162 46H228.954V52H228.162V49.384H224.706V52H223.914V46H224.706V48.616H228.162V46ZM234.997 46H235.669V52H234.877V47.38L231.301 52H230.629V46H231.421V50.62L234.997 46ZM240.116 45.856C241.004 45.856 241.72 46.172 242.264 46.804C242.816 47.428 243.092 48.168 243.092 49.024C243.092 49.112 243.084 49.236 243.068 49.396H237.8C237.88 50.004 238.136 50.488 238.568 50.848C239.008 51.2 239.548 51.376 240.188 51.376C240.644 51.376 241.036 51.284 241.364 51.1C241.7 50.908 241.952 50.66 242.12 50.356L242.816 50.764C242.552 51.188 242.192 51.524 241.736 51.772C241.28 52.02 240.76 52.144 240.176 52.144C239.232 52.144 238.464 51.848 237.872 51.256C237.28 50.664 236.984 49.912 236.984 49C236.984 48.104 237.276 47.356 237.86 46.756C238.444 46.156 239.196 45.856 240.116 45.856ZM240.116 46.624C239.492 46.624 238.968 46.812 238.544 47.188C238.128 47.556 237.88 48.036 237.8 48.628H242.276C242.196 47.996 241.952 47.504 241.544 47.152C241.136 46.8 240.66 46.624 240.116 46.624ZM252.392 51.232H253.232V53.608H252.44V52H247.544V53.608H246.752V51.232H247.484C247.892 50.696 248.096 49.94 248.096 48.964V46H252.392V51.232ZM248.444 51.232H251.6V46.768H248.888V48.964C248.888 49.884 248.74 50.64 248.444 51.232ZM256.967 45.856C257.855 45.856 258.571 46.172 259.115 46.804C259.667 47.428 259.943 48.168 259.943 49.024C259.943 49.112 259.935 49.236 259.919 49.396H254.651C254.731 50.004 254.987 50.488 255.419 50.848C255.859 51.2 256.399 51.376 257.039 51.376C257.495 51.376 257.887 51.284 258.215 51.1C258.551 50.908 258.803 50.66 258.971 50.356L259.667 50.764C259.403 51.188 259.043 51.524 258.587 51.772C258.131 52.02 257.611 52.144 257.027 52.144C256.083 52.144 255.315 51.848 254.723 51.256C254.131 50.664 253.835 49.912 253.835 49C253.835 48.104 254.127 47.356 254.711 46.756C255.295 46.156 256.047 45.856 256.967 45.856ZM256.967 46.624C256.343 46.624 255.819 46.812 255.395 47.188C254.979 47.556 254.731 48.036 254.651 48.628H259.127C259.047 47.996 258.803 47.504 258.395 47.152C257.987 46.8 257.511 46.624 256.967 46.624ZM265.406 46V52H264.614V49.696H263.582L261.734 52H260.726L262.622 49.672C262.142 49.6 261.746 49.4 261.434 49.072C261.122 48.744 260.966 48.34 260.966 47.86C260.966 47.316 261.158 46.872 261.542 46.528C261.934 46.176 262.41 46 262.97 46H265.406ZM262.97 48.952H264.614V46.768H262.97C262.634 46.768 262.346 46.868 262.106 47.068C261.874 47.268 261.758 47.532 261.758 47.86C261.758 48.188 261.874 48.452 262.106 48.652C262.346 48.852 262.634 48.952 262.97 48.952ZM271.406 46V46.768H269.282V52H268.49V46.768H266.366V46H271.406ZM274.909 45.856C275.797 45.856 276.513 46.172 277.057 46.804C277.609 47.428 277.885 48.168 277.885 49.024C277.885 49.112 277.877 49.236 277.861 49.396H272.593C272.673 50.004 272.929 50.488 273.361 50.848C273.801 51.2 274.341 51.376 274.981 51.376C275.437 51.376 275.829 51.284 276.157 51.1C276.493 50.908 276.745 50.66 276.913 50.356L277.609 50.764C277.345 51.188 276.985 51.524 276.529 51.772C276.073 52.02 275.553 52.144 274.969 52.144C274.025 52.144 273.257 51.848 272.665 51.256C272.073 50.664 271.777 49.912 271.777 49C271.777 48.104 272.069 47.356 272.653 46.756C273.237 46.156 273.989 45.856 274.909 45.856ZM274.909 46.624C274.285 46.624 273.761 46.812 273.337 47.188C272.921 47.556 272.673 48.036 272.593 48.628H277.069C276.989 47.996 276.745 47.504 276.337 47.152C275.929 46.8 275.453 46.624 274.909 46.624ZM283.83 46V52H283.038V46.768H280.326V49.444C280.326 50.444 280.134 51.132 279.75 51.508C279.374 51.884 278.854 52.048 278.19 52V51.256C278.646 51.304 278.982 51.196 279.198 50.932C279.422 50.668 279.534 50.172 279.534 49.444V46H283.83ZM287.944 48.28C288.504 48.28 288.976 48.456 289.36 48.808C289.752 49.152 289.948 49.596 289.948 50.14C289.948 50.684 289.752 51.132 289.36 51.484C288.976 51.828 288.504 52 287.944 52H285.508V46H286.3V48.28H287.944ZM287.944 51.232C288.28 51.232 288.564 51.132 288.796 50.932C289.036 50.732 289.156 50.468 289.156 50.14C289.156 49.812 289.036 49.548 288.796 49.348C288.564 49.148 288.28 49.048 287.944 49.048H286.3V51.232H287.944ZM295.393 46H296.185V52H295.393V49.384H291.937V52H291.145V46H291.937V48.616H295.393V46ZM302.888 51.244C302.28 51.844 301.536 52.144 300.656 52.144C299.776 52.144 299.028 51.844 298.412 51.244C297.804 50.636 297.5 49.888 297.5 49C297.5 48.112 297.804 47.368 298.412 46.768C299.028 46.16 299.776 45.856 300.656 45.856C301.536 45.856 302.28 46.16 302.888 46.768C303.504 47.368 303.812 48.112 303.812 49C303.812 49.888 303.504 50.636 302.888 51.244ZM298.976 50.692C299.432 51.148 299.992 51.376 300.656 51.376C301.32 51.376 301.88 51.148 302.336 50.692C302.792 50.228 303.02 49.664 303.02 49C303.02 48.336 302.792 47.776 302.336 47.32C301.88 46.856 301.32 46.624 300.656 46.624C299.992 46.624 299.432 46.856 298.976 47.32C298.52 47.776 298.292 48.336 298.292 49C298.292 49.664 298.52 50.228 298.976 50.692ZM307.933 52.144C307.029 52.144 306.277 51.844 305.677 51.244C305.077 50.636 304.777 49.888 304.777 49C304.777 48.112 305.077 47.368 305.677 46.768C306.277 46.16 307.029 45.856 307.933 45.856C308.525 45.856 309.057 46 309.529 46.288C310.001 46.568 310.345 46.948 310.561 47.428L309.913 47.8C309.753 47.44 309.493 47.156 309.133 46.948C308.781 46.732 308.381 46.624 307.933 46.624C307.269 46.624 306.709 46.856 306.253 47.32C305.797 47.776 305.569 48.336 305.569 49C305.569 49.664 305.797 50.228 306.253 50.692C306.709 51.148 307.269 51.376 307.933 51.376C308.381 51.376 308.781 51.272 309.133 51.064C309.485 50.848 309.761 50.56 309.961 50.2L310.621 50.584C310.373 51.064 310.009 51.444 309.529 51.724C309.049 52.004 308.517 52.144 307.933 52.144ZM315.961 46V46.768H313.837V52H313.045V46.768H310.921V46H315.961ZM321.294 46H321.966V52H321.174V47.38L317.598 52H316.926V46H317.718V50.62L321.294 46ZM324.649 51.928C324.521 52.056 324.365 52.12 324.181 52.12C323.997 52.12 323.841 52.056 323.713 51.928C323.585 51.8 323.521 51.644 323.521 51.46C323.521 51.276 323.585 51.12 323.713 50.992C323.841 50.864 323.997 50.8 324.181 50.8C324.365 50.8 324.521 50.864 324.649 50.992C324.777 51.12 324.841 51.276 324.841 51.46C324.841 51.644 324.777 51.8 324.649 51.928ZM32.96 61.6V70H32.12V62.392H27.8V70H26.96V61.6H32.96ZM39.9219 64H40.7139V70H39.9219V68.824C39.3699 69.704 38.5619 70.144 37.4979 70.144C36.6419 70.144 35.9099 69.84 35.3019 69.232C34.7019 68.624 34.4019 67.88 34.4019 67C34.4019 66.12 34.7019 65.376 35.3019 64.768C35.9099 64.16 36.6419 63.856 37.4979 63.856C38.5619 63.856 39.3699 64.296 39.9219 65.176V64ZM35.8779 68.692C36.3339 69.148 36.8939 69.376 37.5579 69.376C38.2219 69.376 38.7819 69.148 39.2379 68.692C39.6939 68.228 39.9219 67.664 39.9219 67C39.9219 66.336 39.6939 65.776 39.2379 65.32C38.7819 64.856 38.2219 64.624 37.5579 64.624C36.8939 64.624 36.3339 64.856 35.8779 65.32C35.4219 65.776 35.1939 66.336 35.1939 67C35.1939 67.664 35.4219 68.228 35.8779 68.692ZM46.7108 64V64.768H44.5868V70H43.7948V64.768H41.6708V64H46.7108ZM50.2136 63.856C51.1016 63.856 51.8176 64.172 52.3616 64.804C52.9136 65.428 53.1896 66.168 53.1896 67.024C53.1896 67.112 53.1816 67.236 53.1656 67.396H47.8976C47.9776 68.004 48.2336 68.488 48.6656 68.848C49.1056 69.2 49.6456 69.376 50.2856 69.376C50.7416 69.376 51.1336 69.284 51.4616 69.1C51.7976 68.908 52.0496 68.66 52.2176 68.356L52.9136 68.764C52.6496 69.188 52.2896 69.524 51.8336 69.772C51.3776 70.02 50.8576 70.144 50.2736 70.144C49.3296 70.144 48.5616 69.848 47.9696 69.256C47.3776 68.664 47.0816 67.912 47.0816 67C47.0816 66.104 47.3736 65.356 47.9576 64.756C48.5416 64.156 49.2936 63.856 50.2136 63.856ZM50.2136 64.624C49.5896 64.624 49.0656 64.812 48.6416 65.188C48.2256 65.556 47.9776 66.036 47.8976 66.628H52.3736C52.2936 65.996 52.0496 65.504 51.6416 65.152C51.2336 64.8 50.7576 64.624 50.2136 64.624ZM58.6974 64H59.4894V70H58.6974V67.384H55.2414V70H54.4494V64H55.2414V66.616H58.6974V64ZM65.4842 64V64.768H63.3602V70H62.5682V64.768H60.4442V64H65.4842ZM68.8854 66.28C69.4454 66.28 69.9174 66.456 70.3014 66.808C70.6934 67.152 70.8894 67.596 70.8894 68.14C70.8894 68.684 70.6934 69.132 70.3014 69.484C69.9174 69.828 69.4454 70 68.8854 70H66.4494V64H67.2414V66.28H68.8854ZM71.7294 64H72.5214V70H71.7294V64ZM68.8854 69.232C69.2214 69.232 69.5054 69.132 69.7374 68.932C69.9774 68.732 70.0974 68.468 70.0974 68.14C70.0974 67.812 69.9774 67.548 69.7374 67.348C69.5054 67.148 69.2214 67.048 68.8854 67.048H67.2414V69.232H68.8854ZM81.4552 64H82.2472V70H81.4552V67.384H77.9992V70H77.2072V64H77.9992V66.616H81.4552V64ZM89.082 64H89.874V70H89.082V68.824C88.53 69.704 87.722 70.144 86.658 70.144C85.802 70.144 85.07 69.84 84.462 69.232C83.862 68.624 83.562 67.88 83.562 67C83.562 66.12 83.862 65.376 84.462 64.768C85.07 64.16 85.802 63.856 86.658 63.856C87.722 63.856 88.53 64.296 89.082 65.176V64ZM85.038 68.692C85.494 69.148 86.054 69.376 86.718 69.376C87.382 69.376 87.942 69.148 88.398 68.692C88.854 68.228 89.082 67.664 89.082 67C89.082 66.336 88.854 65.776 88.398 65.32C87.942 64.856 87.382 64.624 86.718 64.624C86.054 64.624 85.494 64.856 85.038 65.32C84.582 65.776 84.354 66.336 84.354 67C84.354 67.664 84.582 68.228 85.038 68.692ZM98.9189 64H99.5909V70H98.7989V65.38L95.2229 70H94.5509V64H95.3429V68.62L98.9189 64ZM104.062 70.144C103.158 70.144 102.406 69.844 101.806 69.244C101.206 68.636 100.906 67.888 100.906 67C100.906 66.112 101.206 65.368 101.806 64.768C102.406 64.16 103.158 63.856 104.062 63.856C104.654 63.856 105.186 64 105.658 64.288C106.13 64.568 106.474 64.948 106.69 65.428L106.042 65.8C105.882 65.44 105.622 65.156 105.262 64.948C104.91 64.732 104.51 64.624 104.062 64.624C103.398 64.624 102.838 64.856 102.382 65.32C101.926 65.776 101.698 66.336 101.698 67C101.698 67.664 101.926 68.228 102.382 68.692C102.838 69.148 103.398 69.376 104.062 69.376C104.51 69.376 104.91 69.272 105.262 69.064C105.614 68.848 105.89 68.56 106.09 68.2L106.75 68.584C106.502 69.064 106.138 69.444 105.658 69.724C105.178 70.004 104.646 70.144 104.062 70.144ZM112.927 64V70H112.135V64.768H108.679V70H107.887V64H112.927ZM119.63 69.244C119.022 69.844 118.278 70.144 117.398 70.144C116.518 70.144 115.77 69.844 115.154 69.244C114.546 68.636 114.242 67.888 114.242 67C114.242 66.112 114.546 65.368 115.154 64.768C115.77 64.16 116.518 63.856 117.398 63.856C118.278 63.856 119.022 64.16 119.63 64.768C120.246 65.368 120.554 66.112 120.554 67C120.554 67.888 120.246 68.636 119.63 69.244ZM115.718 68.692C116.174 69.148 116.734 69.376 117.398 69.376C118.062 69.376 118.622 69.148 119.078 68.692C119.534 68.228 119.762 67.664 119.762 67C119.762 66.336 119.534 65.776 119.078 65.32C118.622 64.856 118.062 64.624 117.398 64.624C116.734 64.624 116.174 64.856 115.718 65.32C115.262 65.776 115.034 66.336 115.034 67C115.034 67.664 115.262 68.228 115.718 68.692ZM126.565 64V70H125.773V64.768H123.061V67.444C123.061 68.444 122.869 69.132 122.485 69.508C122.109 69.884 121.589 70.048 120.925 70V69.256C121.381 69.304 121.717 69.196 121.933 68.932C122.157 68.668 122.269 68.172 122.269 67.444V64H126.565ZM130.678 66.28C131.238 66.28 131.71 66.456 132.094 66.808C132.486 67.152 132.682 67.596 132.682 68.14C132.682 68.684 132.486 69.132 132.094 69.484C131.71 69.828 131.238 70 130.678 70H128.242V64H129.034V66.28H130.678ZM130.678 69.232C131.014 69.232 131.298 69.132 131.53 68.932C131.77 68.732 131.89 68.468 131.89 68.14C131.89 67.812 131.77 67.548 131.53 67.348C131.298 67.148 131.014 67.048 130.678 67.048H129.034V69.232H130.678ZM136.858 66.916C137.554 67.18 137.902 67.66 137.902 68.356C137.902 68.852 137.706 69.276 137.314 69.628C136.93 69.972 136.378 70.144 135.658 70.144C134.45 70.144 133.658 69.664 133.282 68.704L133.954 68.308C134.202 69.02 134.77 69.376 135.658 69.376C136.122 69.376 136.478 69.276 136.726 69.076C136.982 68.876 137.11 68.62 137.11 68.308C137.11 68.028 137.006 67.8 136.798 67.624C136.59 67.448 136.31 67.36 135.958 67.36H135.082V66.592H135.718C136.062 66.592 136.33 66.508 136.522 66.34C136.722 66.164 136.822 65.924 136.822 65.62C136.822 65.332 136.706 65.096 136.474 64.912C136.242 64.72 135.93 64.624 135.538 64.624C134.786 64.624 134.286 64.924 134.038 65.524L133.378 65.14C133.778 64.284 134.498 63.856 135.538 63.856C136.17 63.856 136.674 64.024 137.05 64.36C137.426 64.688 137.614 65.092 137.614 65.572C137.614 66.188 137.362 66.636 136.858 66.916ZM144.134 69.244C143.526 69.844 142.782 70.144 141.902 70.144C141.022 70.144 140.274 69.844 139.658 69.244C139.05 68.636 138.746 67.888 138.746 67C138.746 66.112 139.05 65.368 139.658 64.768C140.274 64.16 141.022 63.856 141.902 63.856C142.782 63.856 143.526 64.16 144.134 64.768C144.75 65.368 145.058 66.112 145.058 67C145.058 67.888 144.75 68.636 144.134 69.244ZM140.222 68.692C140.678 69.148 141.238 69.376 141.902 69.376C142.566 69.376 143.126 69.148 143.582 68.692C144.038 68.228 144.266 67.664 144.266 67C144.266 66.336 144.038 65.776 143.582 65.32C143.126 64.856 142.566 64.624 141.902 64.624C141.238 64.624 140.678 64.856 140.222 65.32C139.766 65.776 139.538 66.336 139.538 67C139.538 67.664 139.766 68.228 140.222 68.692ZM150.199 66.916C150.855 67.156 151.183 67.624 151.183 68.32C151.183 68.808 151.019 69.212 150.691 69.532C150.371 69.844 149.907 70 149.299 70H146.383V64H149.059C149.643 64 150.095 64.152 150.415 64.456C150.735 64.752 150.895 65.136 150.895 65.608C150.895 66.208 150.663 66.644 150.199 66.916ZM149.059 64.768H147.175V66.592H149.059C149.755 66.592 150.103 66.28 150.103 65.656C150.103 65.376 150.011 65.16 149.827 65.008C149.651 64.848 149.395 64.768 149.059 64.768ZM149.299 69.232C149.651 69.232 149.919 69.148 150.103 68.98C150.295 68.812 150.391 68.576 150.391 68.272C150.391 67.992 150.295 67.772 150.103 67.612C149.919 67.444 149.651 67.36 149.299 67.36H147.175V69.232H149.299ZM157.543 64H158.335V70H157.543V68.824C156.991 69.704 156.183 70.144 155.119 70.144C154.263 70.144 153.531 69.84 152.923 69.232C152.323 68.624 152.023 67.88 152.023 67C152.023 66.12 152.323 65.376 152.923 64.768C153.531 64.16 154.263 63.856 155.119 63.856C156.183 63.856 156.991 64.296 157.543 65.176V64ZM153.499 68.692C153.955 69.148 154.515 69.376 155.179 69.376C155.843 69.376 156.403 69.148 156.859 68.692C157.315 68.228 157.543 67.664 157.543 67C157.543 66.336 157.315 65.776 156.859 65.32C156.403 64.856 155.843 64.624 155.179 64.624C154.515 64.624 153.955 64.856 153.499 65.32C153.043 65.776 152.815 66.336 152.815 67C152.815 67.664 153.043 68.228 153.499 68.692ZM164.26 64H165.052V70H164.26V67.384H160.804V70H160.012V64H160.804V66.616H164.26V64ZM171.095 64H171.767V70H170.975V65.38L167.399 70H166.727V64H167.519V68.62L171.095 64ZM176.214 63.856C177.102 63.856 177.818 64.172 178.362 64.804C178.914 65.428 179.19 66.168 179.19 67.024C179.19 67.112 179.182 67.236 179.166 67.396H173.898C173.978 68.004 174.234 68.488 174.666 68.848C175.106 69.2 175.646 69.376 176.286 69.376C176.742 69.376 177.134 69.284 177.462 69.1C177.798 68.908 178.05 68.66 178.218 68.356L178.914 68.764C178.65 69.188 178.29 69.524 177.834 69.772C177.378 70.02 176.858 70.144 176.274 70.144C175.33 70.144 174.562 69.848 173.97 69.256C173.378 68.664 173.082 67.912 173.082 67C173.082 66.104 173.374 65.356 173.958 64.756C174.542 64.156 175.294 63.856 176.214 63.856ZM176.214 64.624C175.59 64.624 175.066 64.812 174.642 65.188C174.226 65.556 173.978 66.036 173.898 66.628H178.374C178.294 65.996 178.05 65.504 177.642 65.152C177.234 64.8 176.758 64.624 176.214 64.624ZM187.769 64V64.768H185.645V70H184.853V64.768H182.729V64H187.769ZM191.272 63.856C192.16 63.856 192.876 64.172 193.42 64.804C193.972 65.428 194.248 66.168 194.248 67.024C194.248 67.112 194.24 67.236 194.224 67.396H188.956C189.036 68.004 189.292 68.488 189.724 68.848C190.164 69.2 190.704 69.376 191.344 69.376C191.8 69.376 192.192 69.284 192.52 69.1C192.856 68.908 193.108 68.66 193.276 68.356L193.972 68.764C193.708 69.188 193.348 69.524 192.892 69.772C192.436 70.02 191.916 70.144 191.332 70.144C190.388 70.144 189.62 69.848 189.028 69.256C188.436 68.664 188.14 67.912 188.14 67C188.14 66.104 188.432 65.356 189.016 64.756C189.6 64.156 190.352 63.856 191.272 63.856ZM191.272 64.624C190.648 64.624 190.124 64.812 189.7 65.188C189.284 65.556 189.036 66.036 188.956 66.628H193.432C193.352 65.996 193.108 65.504 192.7 65.152C192.292 64.8 191.816 64.624 191.272 64.624ZM200.314 70H199.366L197.494 67.528L195.622 70H194.674L197.026 66.892L194.83 64H195.778L197.494 66.268L199.21 64H200.158L197.974 66.892L200.314 70ZM205.639 64H206.431V70H205.639V67.384H202.183V70H201.391V64H202.183V66.616H205.639V64ZM213.134 69.244C212.526 69.844 211.782 70.144 210.902 70.144C210.022 70.144 209.274 69.844 208.658 69.244C208.05 68.636 207.746 67.888 207.746 67C207.746 66.112 208.05 65.368 208.658 64.768C209.274 64.16 210.022 63.856 210.902 63.856C211.782 63.856 212.526 64.16 213.134 64.768C213.75 65.368 214.058 66.112 214.058 67C214.058 67.888 213.75 68.636 213.134 69.244ZM209.222 68.692C209.678 69.148 210.238 69.376 210.902 69.376C211.566 69.376 212.126 69.148 212.582 68.692C213.038 68.228 213.266 67.664 213.266 67C213.266 66.336 213.038 65.776 212.582 65.32C212.126 64.856 211.566 64.624 210.902 64.624C210.238 64.624 209.678 64.856 209.222 65.32C208.766 65.776 208.538 66.336 208.538 67C208.538 67.664 208.766 68.228 209.222 68.692ZM220.069 64V70H219.277V64.768H216.565V67.444C216.565 68.444 216.373 69.132 215.989 69.508C215.613 69.884 215.093 70.048 214.429 70V69.256C214.885 69.304 215.221 69.196 215.437 68.932C215.661 68.668 215.773 68.172 215.773 67.444V64H220.069ZM226.774 69.244C226.166 69.844 225.422 70.144 224.542 70.144C223.662 70.144 222.914 69.844 222.298 69.244C221.69 68.636 221.386 67.888 221.386 67C221.386 66.112 221.69 65.368 222.298 64.768C222.914 64.16 223.662 63.856 224.542 63.856C225.422 63.856 226.166 64.16 226.774 64.768C227.39 65.368 227.698 66.112 227.698 67C227.698 67.888 227.39 68.636 226.774 69.244ZM222.862 68.692C223.318 69.148 223.878 69.376 224.542 69.376C225.206 69.376 225.766 69.148 226.222 68.692C226.678 68.228 226.906 67.664 226.906 67C226.906 66.336 226.678 65.776 226.222 65.32C225.766 64.856 225.206 64.624 224.542 64.624C223.878 64.624 223.318 64.856 222.862 65.32C222.406 65.776 222.178 66.336 222.178 67C222.178 67.664 222.406 68.228 222.862 68.692ZM232.864 64V64.768H229.816V70H229.024V64H232.864ZM238.196 64H238.868V70H238.076V65.38L234.5 70H233.828V64H234.62V68.62L238.196 64ZM241.503 63.04V62.344H244.623V63.04H241.503ZM244.911 64H245.583V70H244.791V65.38L241.215 70H240.543V64H241.335V68.62L244.911 64ZM248.266 69.928C248.138 70.056 247.982 70.12 247.798 70.12C247.614 70.12 247.458 70.056 247.33 69.928C247.202 69.8 247.138 69.644 247.138 69.46C247.138 69.276 247.202 69.12 247.33 68.992C247.458 68.864 247.614 68.8 247.798 68.8C247.982 68.8 248.138 68.864 248.266 68.992C248.394 69.12 248.458 69.276 248.458 69.46C248.458 69.644 248.394 69.8 248.266 69.928Z" fill="black"/>
<path d="M403.442 43.6V52H402.602V44.392H398.282V52H397.442V43.6H403.442ZM410.272 51.244C409.664 51.844 408.92 52.144 408.04 52.144C407.16 52.144 406.412 51.844 405.796 51.244C405.188 50.636 404.884 49.888 404.884 49C404.884 48.112 405.188 47.368 405.796 46.768C406.412 46.16 407.16 45.856 408.04 45.856C408.92 45.856 409.664 46.16 410.272 46.768C410.888 47.368 411.196 48.112 411.196 49C411.196 49.888 410.888 50.636 410.272 51.244ZM406.36 50.692C406.816 51.148 407.376 51.376 408.04 51.376C408.704 51.376 409.264 51.148 409.72 50.692C410.176 50.228 410.404 49.664 410.404 49C410.404 48.336 410.176 47.776 409.72 47.32C409.264 46.856 408.704 46.624 408.04 46.624C407.376 46.624 406.816 46.856 406.36 47.32C405.904 47.776 405.676 48.336 405.676 49C405.676 49.664 405.904 50.228 406.36 50.692ZM417.207 46V52H416.415V46.768H413.703V49.444C413.703 50.444 413.511 51.132 413.127 51.508C412.751 51.884 412.231 52.048 411.567 52V51.256C412.023 51.304 412.359 51.196 412.575 50.932C412.799 50.668 412.911 50.172 412.911 49.444V46H417.207ZM423.253 46H423.925V52H423.133V47.38L419.557 52H418.885V46H419.677V50.62L423.253 46ZM429.92 46V46.768H427.796V52H427.004V46.768H424.88V46H429.92ZM435.253 46H435.925V52H435.133V47.38L431.557 52H430.885V46H431.677V50.62L435.253 46ZM442.448 52H441.392L438.392 49.108V52H437.6V46H438.392V48.652L441.248 46H442.328L439.232 48.88L442.448 52ZM448.092 46H448.884V52H448.092V50.824C447.54 51.704 446.732 52.144 445.668 52.144C444.812 52.144 444.08 51.84 443.472 51.232C442.872 50.624 442.572 49.88 442.572 49C442.572 48.12 442.872 47.376 443.472 46.768C444.08 46.16 444.812 45.856 445.668 45.856C446.732 45.856 447.54 46.296 448.092 47.176V46ZM444.048 50.692C444.504 51.148 445.064 51.376 445.728 51.376C446.392 51.376 446.952 51.148 447.408 50.692C447.864 50.228 448.092 49.664 448.092 49C448.092 48.336 447.864 47.776 447.408 47.32C446.952 46.856 446.392 46.624 445.728 46.624C445.064 46.624 444.504 46.856 444.048 47.32C443.592 47.776 443.364 48.336 443.364 49C443.364 49.664 443.592 50.228 444.048 50.692ZM458.409 52H457.353L454.353 49.108V52H453.561V46H454.353V48.652L457.209 46H458.289L455.193 48.88L458.409 52ZM463.921 51.244C463.313 51.844 462.569 52.144 461.689 52.144C460.809 52.144 460.061 51.844 459.445 51.244C458.837 50.636 458.533 49.888 458.533 49C458.533 48.112 458.837 47.368 459.445 46.768C460.061 46.16 460.809 45.856 461.689 45.856C462.569 45.856 463.313 46.16 463.921 46.768C464.537 47.368 464.845 48.112 464.845 49C464.845 49.888 464.537 50.636 463.921 51.244ZM460.009 50.692C460.465 51.148 461.025 51.376 461.689 51.376C462.353 51.376 462.913 51.148 463.369 50.692C463.825 50.228 464.053 49.664 464.053 49C464.053 48.336 463.825 47.776 463.369 47.32C462.913 46.856 462.353 46.624 461.689 46.624C461.025 46.624 460.465 46.856 460.009 47.32C459.553 47.776 459.325 48.336 459.325 49C459.325 49.664 459.553 50.228 460.009 50.692ZM470.418 46H471.21V52H470.418V49.384H466.962V52H466.17V46H466.962V48.616H470.418V46ZM478.741 46.864C479.317 47.448 479.605 48.16 479.605 49C479.605 49.84 479.317 50.552 478.741 51.136C478.165 51.72 477.405 52.052 476.461 52.132V54.4H475.669V52.132C474.725 52.052 473.965 51.72 473.389 51.136C472.813 50.552 472.525 49.84 472.525 49C472.525 48.16 472.813 47.448 473.389 46.864C473.965 46.28 474.725 45.948 475.669 45.868V43.6H476.461V45.868C477.405 45.948 478.165 46.28 478.741 46.864ZM473.953 47.416C473.529 47.848 473.317 48.376 473.317 49C473.317 49.624 473.529 50.156 473.953 50.596C474.377 51.028 474.949 51.28 475.669 51.352V46.648C474.949 46.72 474.377 46.976 473.953 47.416ZM476.461 51.352C477.181 51.28 477.753 51.028 478.177 50.596C478.601 50.156 478.813 49.624 478.813 49C478.813 48.376 478.601 47.848 478.177 47.416C477.753 46.976 477.181 46.72 476.461 46.648V51.352ZM485.292 46H485.964V52H485.172V47.38L481.596 52H480.924V46H481.716V50.62L485.292 46ZM492.679 51.232H493.519V53.608H492.727V52H487.831V53.608H487.039V51.232H487.771C488.179 50.696 488.383 49.94 488.383 48.964V46H492.679V51.232ZM488.731 51.232H491.887V46.768H489.175V48.964C489.175 49.884 489.027 50.64 488.731 51.232ZM497.255 45.856C498.143 45.856 498.859 46.172 499.403 46.804C499.955 47.428 500.231 48.168 500.231 49.024C500.231 49.112 500.223 49.236 500.207 49.396H494.939C495.019 50.004 495.275 50.488 495.707 50.848C496.147 51.2 496.687 51.376 497.327 51.376C497.783 51.376 498.175 51.284 498.503 51.1C498.839 50.908 499.091 50.66 499.259 50.356L499.955 50.764C499.691 51.188 499.331 51.524 498.875 51.772C498.419 52.02 497.899 52.144 497.315 52.144C496.371 52.144 495.603 51.848 495.011 51.256C494.419 50.664 494.123 49.912 494.123 49C494.123 48.104 494.415 47.356 494.999 46.756C495.583 46.156 496.335 45.856 497.255 45.856ZM497.255 46.624C496.631 46.624 496.107 46.812 495.683 47.188C495.267 47.556 495.019 48.036 494.939 48.628H499.415C499.335 47.996 499.091 47.504 498.683 47.152C498.275 46.8 497.799 46.624 497.255 46.624ZM505.738 46H506.53V52H505.738V49.384H502.282V52H501.49V46H502.282V48.616H505.738V46ZM513.125 51.232H514.085V53.608H513.293V52H508.205V46H508.997V51.232H512.333V46H513.125V51.232ZM519.651 46H520.323V52H519.531V47.38L515.955 52H515.283V46H516.075V50.62L519.651 46ZM527.158 46H527.95V52H527.158V50.824C526.606 51.704 525.798 52.144 524.734 52.144C523.878 52.144 523.146 51.84 522.538 51.232C521.938 50.624 521.638 49.88 521.638 49C521.638 48.12 521.938 47.376 522.538 46.768C523.146 46.16 523.878 45.856 524.734 45.856C525.798 45.856 526.606 46.296 527.158 47.176V46ZM523.114 50.692C523.57 51.148 524.13 51.376 524.794 51.376C525.458 51.376 526.018 51.148 526.474 50.692C526.93 50.228 527.158 49.664 527.158 49C527.158 48.336 526.93 47.776 526.474 47.32C526.018 46.856 525.458 46.624 524.794 46.624C524.13 46.624 523.57 46.856 523.114 47.32C522.658 47.776 522.43 48.336 522.43 49C522.43 49.664 522.658 50.228 523.114 50.692ZM534.547 46V52H533.755V46.768H531.043V49.444C531.043 50.444 530.851 51.132 530.467 51.508C530.091 51.884 529.571 52.048 528.907 52V51.256C529.363 51.304 529.699 51.196 529.915 50.932C530.139 50.668 530.251 50.172 530.251 49.444V46H534.547ZM538.661 48.28C539.221 48.28 539.693 48.456 540.077 48.808C540.469 49.152 540.665 49.596 540.665 50.14C540.665 50.684 540.469 51.132 540.077 51.484C539.693 51.828 539.221 52 538.661 52H536.225V46H537.017V48.28H538.661ZM538.661 51.232C538.997 51.232 539.281 51.132 539.513 50.932C539.753 50.732 539.873 50.468 539.873 50.14C539.873 49.812 539.753 49.548 539.513 49.348C539.281 49.148 538.997 49.048 538.661 49.048H537.017V51.232H538.661ZM546.109 46H546.901V52H546.109V49.384H542.653V52H541.861V46H542.653V48.616H546.109V46ZM553.604 51.244C552.996 51.844 552.252 52.144 551.372 52.144C550.492 52.144 549.744 51.844 549.128 51.244C548.52 50.636 548.216 49.888 548.216 49C548.216 48.112 548.52 47.368 549.128 46.768C549.744 46.16 550.492 45.856 551.372 45.856C552.252 45.856 552.996 46.16 553.604 46.768C554.22 47.368 554.528 48.112 554.528 49C554.528 49.888 554.22 50.636 553.604 51.244ZM549.692 50.692C550.148 51.148 550.708 51.376 551.372 51.376C552.036 51.376 552.596 51.148 553.052 50.692C553.508 50.228 553.736 49.664 553.736 49C553.736 48.336 553.508 47.776 553.052 47.32C552.596 46.856 552.036 46.624 551.372 46.624C550.708 46.624 550.148 46.856 549.692 47.32C549.236 47.776 549.008 48.336 549.008 49C549.008 49.664 549.236 50.228 549.692 50.692ZM558.65 52.144C557.746 52.144 556.994 51.844 556.394 51.244C555.794 50.636 555.494 49.888 555.494 49C555.494 48.112 555.794 47.368 556.394 46.768C556.994 46.16 557.746 45.856 558.65 45.856C559.242 45.856 559.774 46 560.246 46.288C560.718 46.568 561.062 46.948 561.278 47.428L560.63 47.8C560.47 47.44 560.21 47.156 559.85 46.948C559.498 46.732 559.098 46.624 558.65 46.624C557.986 46.624 557.426 46.856 556.97 47.32C556.514 47.776 556.286 48.336 556.286 49C556.286 49.664 556.514 50.228 556.97 50.692C557.426 51.148 557.986 51.376 558.65 51.376C559.098 51.376 559.498 51.272 559.85 51.064C560.202 50.848 560.478 50.56 560.678 50.2L561.338 50.584C561.09 51.064 560.726 51.444 560.246 51.724C559.766 52.004 559.234 52.144 558.65 52.144ZM566.678 46V46.768H564.554V52H563.762V46.768H561.638V46H566.678ZM572.011 46H572.683V52H571.891V47.38L568.315 52H567.643V46H568.435V50.62L572.011 46Z" fill="black"/>
<path d="M396.482 54.4H573.523V55H396.482V54.4Z" fill="black"/>
<rect width="270" height="40" transform="translate(675 26)" fill="#00868A"/>
<path d="M703.074 42.3103C702.434 42.3103 701.822 42.4371 701.24 42.6908C700.657 42.9446 700.156 43.2801 699.738 43.6975C699.319 44.115 698.983 44.6142 698.728 45.1953C698.474 45.7764 698.347 46.3862 698.347 47.0246C698.347 47.6629 698.474 48.2768 698.728 48.8661C698.983 49.4554 699.319 49.9587 699.738 50.3761C700.156 50.7935 700.657 51.125 701.24 51.3705C701.822 51.6161 702.434 51.7388 703.074 51.7388C703.944 51.7388 704.74 51.5301 705.462 51.1127C706.184 50.6953 706.755 50.1265 707.173 49.4063C707.592 48.686 707.801 47.8921 707.801 47.0246C707.801 45.7314 707.342 44.6224 706.422 43.6975C705.503 42.7727 704.387 42.3103 703.074 42.3103ZM703.074 50.1674C702.516 50.1674 701.991 50.0242 701.498 49.7377C701.006 49.4513 700.616 49.0666 700.329 48.5837C700.041 48.1008 699.898 47.5729 699.898 47C699.898 46.5744 699.98 46.1693 700.144 45.7846C700.308 45.3999 700.534 45.0644 700.821 44.7779C701.108 44.4914 701.445 44.2664 701.83 44.1027C702.216 43.939 702.622 43.8571 703.049 43.8571C703.919 43.8571 704.662 44.1641 705.277 44.7779C705.893 45.3917 706.201 46.1324 706.201 47C706.201 47.8676 705.897 48.6124 705.29 49.2344C704.682 49.8564 703.944 50.1674 703.074 50.1674ZM715.606 46.8281C715.606 46.8118 715.602 46.7913 715.594 46.7667C715.586 46.7422 715.581 46.7217 715.581 46.7054C715.581 46.689 715.577 46.6767 715.569 46.6685L715.557 46.6563V46.6317L715.532 46.5826C714.416 44.0126 712.725 41.9952 710.46 40.5301C708.195 39.0651 705.725 38.3326 703.049 38.3326C701.293 38.3326 699.602 38.6518 697.977 39.2902C696.352 39.9286 694.879 40.8739 693.558 42.1261C692.236 43.3783 691.198 44.8638 690.443 46.5826V46.644L690.419 46.6808V46.7545L690.394 46.8036C690.378 46.9018 690.369 46.9754 690.369 47.0246C690.369 47.0573 690.373 47.09 690.382 47.1228C690.39 47.1555 690.394 47.1882 690.394 47.221C690.394 47.2374 690.402 47.2619 690.419 47.2946V47.3438L690.431 47.3806L690.443 47.3929V47.4665C691.576 50.0365 693.279 52.0458 695.552 53.4944C697.825 54.9431 700.308 55.6674 703 55.6674C704.756 55.6674 706.443 55.3523 708.06 54.7221C709.676 54.0919 711.141 53.1548 712.455 51.9107C713.768 50.6667 714.794 49.1853 715.532 47.4665C715.549 47.4665 715.557 47.4583 715.557 47.442V47.4051L715.569 47.3806L715.581 47.3683V47.2946L715.606 47.2455C715.622 47.1473 715.631 47.0737 715.631 47.0246C715.631 46.9918 715.627 46.9591 715.618 46.9263C715.61 46.8936 715.606 46.8609 715.606 46.8281ZM703 54.096C700.669 54.096 698.511 53.4862 696.525 52.2667C694.539 51.0472 693.028 49.2999 691.994 47.0246C693.028 44.7493 694.547 42.9937 696.549 41.7578C698.552 40.5219 700.718 39.904 703.049 39.904C704.559 39.904 706.008 40.1659 707.395 40.6897C708.782 41.2135 710.058 42.0197 711.223 43.1083C712.389 44.1968 713.316 45.5022 714.006 47.0246C712.972 49.2999 711.461 51.0472 709.475 52.2667C707.489 53.4862 705.331 54.096 703 54.096Z" fill="white"/>
<path d="M732.65 46.918C733.098 47.1327 733.453 47.4407 733.714 47.842C733.985 48.2433 734.12 48.7053 734.12 49.228C734.12 50.012 733.845 50.67 733.294 51.202C732.743 51.734 732.071 52 731.278 52H727.05V42.2H730.97C731.735 42.2 732.384 42.4567 732.916 42.97C733.448 43.4833 733.714 44.118 733.714 44.874C733.714 45.742 733.359 46.4233 732.65 46.918ZM730.97 43.418H728.352V46.414H730.97C731.381 46.414 731.726 46.2693 732.006 45.98C732.286 45.6907 732.426 45.336 732.426 44.916C732.426 44.5053 732.281 44.1553 731.992 43.866C731.712 43.5673 731.371 43.418 730.97 43.418ZM731.278 50.782C731.717 50.782 732.085 50.628 732.384 50.32C732.683 50.012 732.832 49.634 732.832 49.186C732.832 48.7473 732.678 48.374 732.37 48.066C732.071 47.758 731.707 47.604 731.278 47.604H728.352V50.782H731.278ZM736.965 50.768H741.515V52H735.663V42.2H741.445V43.432H736.965V46.442H741.095V47.66H736.965V50.768ZM746.643 42.2C747.548 42.2 748.3 42.5033 748.897 43.11C749.504 43.7073 749.807 44.454 749.807 45.35C749.807 46.2367 749.504 46.9833 748.897 47.59C748.3 48.1967 747.548 48.5 746.643 48.5H744.389V52H743.087V42.2H746.643ZM746.643 47.282C747.184 47.282 747.632 47.1 747.987 46.736C748.342 46.3627 748.519 45.9007 748.519 45.35C748.519 44.79 748.342 44.328 747.987 43.964C747.632 43.6 747.184 43.418 746.643 43.418H744.389V47.282H746.643ZM755.883 52.182C754.399 52.182 753.171 51.692 752.201 50.712C751.239 49.732 750.759 48.528 750.759 47.1C750.759 45.672 751.239 44.468 752.201 43.488C753.171 42.508 754.399 42.018 755.883 42.018C756.779 42.018 757.6 42.2327 758.347 42.662C759.103 43.0913 759.691 43.67 760.111 44.398L758.977 45.056C758.697 44.5147 758.277 44.0853 757.717 43.768C757.166 43.4413 756.555 43.278 755.883 43.278C754.753 43.278 753.829 43.642 753.111 44.37C752.401 45.098 752.047 46.008 752.047 47.1C752.047 48.1827 752.401 49.088 753.111 49.816C753.829 50.544 754.753 50.908 755.883 50.908C756.555 50.908 757.166 50.7493 757.717 50.432C758.277 50.1053 758.697 49.676 758.977 49.144L760.111 49.788C759.7 50.516 759.117 51.0993 758.361 51.538C757.605 51.9673 756.779 52.182 755.883 52.182ZM767.675 52V44.692L762.635 52H761.585V42.2H762.887V49.522L767.927 42.2H768.977V52H767.675ZM777.667 42.2V52H776.379V48.248H774.433L771.899 52H770.429L773.033 48.164C772.361 48.0053 771.806 47.6507 771.367 47.1C770.929 46.5493 770.709 45.9287 770.709 45.238C770.709 44.398 771.003 43.684 771.591 43.096C772.189 42.4987 772.907 42.2 773.747 42.2H777.667ZM773.747 47.072H776.379V43.418H773.747C773.271 43.418 772.861 43.5953 772.515 43.95C772.17 44.3047 771.997 44.734 771.997 45.238C771.997 45.742 772.17 46.176 772.515 46.54C772.861 46.8947 773.271 47.072 773.747 47.072ZM790.451 50.768H791.501V53.876H790.199V52H783.731V53.876H782.429V50.768H783.283C783.889 50.012 784.193 48.864 784.193 47.324V42.2H790.451V50.768ZM784.753 50.768H789.149V43.418H785.495V47.352C785.495 48.836 785.247 49.9747 784.753 50.768ZM792.19 52V50.824C792.834 50.9173 793.315 50.74 793.632 50.292C793.959 49.8347 794.122 48.99 794.122 47.758V42.2H800.59V52H799.288V43.432H795.424V47.758C795.424 48.6353 795.34 49.3727 795.172 49.97C795.013 50.558 794.78 51.0013 794.472 51.3C794.173 51.5987 793.837 51.804 793.464 51.916C793.1 52.0187 792.675 52.0467 792.19 52ZM809.29 42.2V52H808.002V48.248H806.056L803.522 52H802.052L804.656 48.164C803.984 48.0053 803.429 47.6507 802.99 47.1C802.552 46.5493 802.332 45.9287 802.332 45.238C802.332 44.398 802.626 43.684 803.214 43.096C803.812 42.4987 804.53 42.2 805.37 42.2H809.29ZM805.37 47.072H808.002V43.418H805.37C804.894 43.418 804.484 43.5953 804.138 43.95C803.793 44.3047 803.62 44.734 803.62 45.238C803.62 45.742 803.793 46.176 804.138 46.54C804.484 46.8947 804.894 47.072 805.37 47.072ZM819.498 52.182C818.014 52.182 816.786 51.692 815.816 50.712C814.854 49.732 814.374 48.528 814.374 47.1C814.374 45.672 814.854 44.468 815.816 43.488C816.786 42.508 818.014 42.018 819.498 42.018C820.394 42.018 821.215 42.2327 821.962 42.662C822.718 43.0913 823.306 43.67 823.726 44.398L822.592 45.056C822.312 44.5147 821.892 44.0853 821.332 43.768C820.781 43.4413 820.17 43.278 819.498 43.278C818.368 43.278 817.444 43.642 816.726 44.37C816.016 45.098 815.662 46.008 815.662 47.1C815.662 48.1827 816.016 49.088 816.726 49.816C817.444 50.544 818.368 50.908 819.498 50.908C820.17 50.908 820.781 50.7493 821.332 50.432C821.892 50.1053 822.312 49.676 822.592 49.144L823.726 49.788C823.315 50.516 822.732 51.0993 821.976 51.538C821.22 51.9673 820.394 52.182 819.498 52.182ZM824.141 52V50.824C824.785 50.9173 825.266 50.74 825.583 50.292C825.91 49.8347 826.073 48.99 826.073 47.758V42.2H832.541V52H831.239V43.432H827.375V47.758C827.375 48.6353 827.291 49.3727 827.123 49.97C826.965 50.558 826.731 51.0013 826.423 51.3C826.125 51.5987 825.789 51.804 825.415 51.916C825.051 52.0187 824.627 52.0467 824.141 52ZM841.102 52L840.304 49.802H835.894L835.096 52H833.71L837.364 42.2H838.834L842.488 52H841.102ZM836.342 48.584H839.856L838.092 43.754L836.342 48.584ZM847.326 46.05C848.175 46.05 848.894 46.3393 849.482 46.918C850.07 47.4873 850.364 48.1873 850.364 49.018C850.364 49.8673 850.07 50.5767 849.482 51.146C848.903 51.7153 848.184 52 847.326 52H843.644V42.2H849.524V43.432H844.946V46.05H847.326ZM847.326 50.782C847.811 50.782 848.222 50.614 848.558 50.278C848.903 49.942 849.076 49.522 849.076 49.018C849.076 48.5233 848.903 48.108 848.558 47.772C848.222 47.436 847.811 47.268 847.326 47.268H844.946V50.782H847.326ZM859.913 50.698C858.933 51.6873 857.734 52.182 856.315 52.182C854.896 52.182 853.697 51.6873 852.717 50.698C851.737 49.7087 851.247 48.5093 851.247 47.1C851.247 45.6813 851.737 44.482 852.717 43.502C853.697 42.5127 854.896 42.018 856.315 42.018C857.734 42.018 858.933 42.5127 859.913 43.502C860.902 44.482 861.397 45.6813 861.397 47.1C861.397 48.5093 860.902 49.7087 859.913 50.698ZM853.613 49.816C854.341 50.544 855.242 50.908 856.315 50.908C857.388 50.908 858.284 50.544 859.003 49.816C859.731 49.0787 860.095 48.1733 860.095 47.1C860.095 46.0173 859.731 45.112 859.003 44.384C858.284 43.6467 857.388 43.278 856.315 43.278C855.242 43.278 854.341 43.6467 853.613 44.384C852.894 45.112 852.535 46.0173 852.535 47.1C852.535 48.1733 852.894 49.0787 853.613 49.816ZM868.562 46.918C869.01 47.1327 869.365 47.4407 869.626 47.842C869.897 48.2433 870.032 48.7053 870.032 49.228C870.032 50.012 869.757 50.67 869.206 51.202C868.655 51.734 867.983 52 867.19 52H862.962V42.2H866.882C867.647 42.2 868.296 42.4567 868.828 42.97C869.36 43.4833 869.626 44.118 869.626 44.874C869.626 45.742 869.271 46.4233 868.562 46.918ZM866.882 43.418H864.264V46.414H866.882C867.293 46.414 867.638 46.2693 867.918 45.98C868.198 45.6907 868.338 45.336 868.338 44.916C868.338 44.5053 868.193 44.1553 867.904 43.866C867.624 43.5673 867.283 43.418 866.882 43.418ZM867.19 50.782C867.629 50.782 867.997 50.628 868.296 50.32C868.595 50.012 868.744 49.634 868.744 49.186C868.744 48.7473 868.59 48.374 868.282 48.066C867.983 47.758 867.619 47.604 867.19 47.604H864.264V50.782H867.19ZM877.665 52V44.692L872.625 52H871.575V42.2H872.877V49.522L877.917 42.2H878.967V52H877.665ZM888.246 50.768H889.296V53.876H887.994V52H881.526V53.876H880.224V50.768H881.078C881.684 50.012 881.988 48.864 881.988 47.324V42.2H888.246V50.768ZM882.548 50.768H886.944V43.418H883.29V47.352C883.29 48.836 883.042 49.9747 882.548 50.768ZM897.392 42.2V52H896.104V48.248H894.158L891.624 52H890.154L892.758 48.164C892.086 48.0053 891.531 47.6507 891.092 47.1C890.653 46.5493 890.434 45.9287 890.434 45.238C890.434 44.398 890.728 43.684 891.316 43.096C891.913 42.4987 892.632 42.2 893.472 42.2H897.392ZM893.472 47.072H896.104V43.418H893.472C892.996 43.418 892.585 43.5953 892.24 43.95C891.895 44.3047 891.722 44.734 891.722 45.238C891.722 45.742 891.895 46.176 892.24 46.54C892.585 46.8947 892.996 47.072 893.472 47.072ZM910.665 50.768H911.715V53.876H910.413V52H899.493V42.2H900.795V50.768H904.435V42.2H905.723V50.768H909.363V42.2H910.665V50.768ZM919.31 52V44.692L914.27 52H913.22V42.2H914.522V49.522L919.562 42.2H920.612V52H919.31ZM929.68 52H928.196L925.788 48.136L923.38 52H921.91L925.06 46.96L922.092 42.2H923.562L925.788 45.77L928.014 42.2H929.484L926.53 46.946L929.68 52Z" fill="white"/>
<line opacity="0.5" x1="975.5" y1="91" x2="975.5" y2="1" stroke="#C4C4C4"/>
<line opacity="0.5" x1="1055.5" y1="91" x2="1055.5" y2="1" stroke="#C4C4C4"/>
<line opacity="0.5" x1="1135.5" y1="91" x2="1135.5" y2="1" stroke="#C4C4C4"/>
<line opacity="0.5" x1="1215.5" y1="91" x2="1215.5" y2="1" stroke="#C4C4C4"/>
<line opacity="0.5" x1="1295.5" y1="91" x2="1295.5" y2="1" stroke="#C4C4C4"/>
<line opacity="0.5" x1="0.5" y1="91" x2="0.499996" y2="2.18557e-08" stroke="#C4C4C4"/>
<line opacity="0.5" x1="644.5" y1="91" x2="644.5" y2="1" stroke="#C4C4C4"/>
<line opacity="0.5" x1="1" y1="0.5" x2="1296" y2="0.5" stroke="#C4C4C4"/>
<path d="M1106.06 40.945C1105.94 40.5011 1105.7 40.0963 1105.38 39.7712C1105.05 39.4461 1104.65 39.212 1104.2 39.0925C1102.57 38.65 1096 38.65 1096 38.65C1096 38.65 1089.43 38.65 1087.79 39.0925C1087.35 39.212 1086.95 39.4461 1086.62 39.7712C1086.3 40.0963 1086.06 40.5011 1085.94 40.945C1085.64 42.6125 1085.49 44.3049 1085.5 46C1085.49 47.6952 1085.64 49.3876 1085.94 51.055C1086.06 51.499 1086.3 51.9038 1086.62 52.2289C1086.95 52.554 1087.35 52.788 1087.79 52.9075C1089.43 53.35 1096 53.35 1096 53.35C1096 53.35 1102.57 53.35 1104.2 52.9075C1104.65 52.788 1105.05 52.554 1105.38 52.2289C1105.7 51.9038 1105.94 51.499 1106.06 51.055C1106.36 49.3876 1106.51 47.6952 1106.5 46C1106.51 44.3049 1106.36 42.6125 1106.06 40.945ZM1093.9 49.15V42.85L1099.35 46L1093.9 49.15Z" fill="#4FBFA5"/>
<g clip-path="url(#clip0_21_7)">
<path fill-rule="evenodd" clip-rule="evenodd" d="M1025.36 48.7576C1025.36 48.7576 1027.3 50.674 1027.78 51.5608C1027.79 51.5736 1027.8 51.5877 1027.8 51.6028C1028 51.9304 1028.05 52.1872 1027.95 52.3768C1027.79 52.69 1027.24 52.8472 1027.06 52.8604H1023.63C1023.39 52.8604 1022.89 52.798 1022.29 52.3804C1021.82 52.0576 1021.36 51.526 1020.92 51.0064C1020.25 50.2348 1019.68 49.5652 1019.1 49.5652C1019.02 49.565 1018.95 49.5772 1018.88 49.6012C1018.44 49.7404 1017.88 50.368 1017.88 52.0396C1017.88 52.5628 1017.47 52.8604 1017.18 52.8604H1015.61C1015.07 52.8604 1012.29 52.6732 1009.82 50.068C1006.79 46.8784 1004.07 40.48 1004.04 40.4236C1003.87 40.0096 1004.23 39.784 1004.61 39.784H1008.08C1008.54 39.784 1008.69 40.0648 1008.8 40.3168C1008.92 40.606 1009.37 41.7628 1010.12 43.0624C1011.32 45.1768 1012.06 46.0372 1012.65 46.0372C1012.77 46.0375 1012.87 46.0085 1012.97 45.9532C1013.74 45.5284 1013.6 42.7684 1013.56 42.1996C1013.56 42.0892 1013.56 40.9672 1013.17 40.4248C1012.88 40.036 1012.4 39.8848 1012.11 39.8296C1012.19 39.7168 1012.35 39.544 1012.57 39.442C1013.09 39.178 1014.05 39.1396 1015 39.1396H1015.53C1016.56 39.154 1016.82 39.22 1017.2 39.3148C1017.95 39.4948 1017.97 39.9832 1017.9 41.6464C1017.88 42.1216 1017.86 42.6568 1017.86 43.2868C1017.86 43.4212 1017.85 43.5712 1017.85 43.7236C1017.83 44.5768 1017.8 45.538 1018.4 45.9328C1018.48 45.9814 1018.57 46.0072 1018.66 46.0072C1018.87 46.0072 1019.5 46.0072 1021.19 43.0972C1021.94 41.812 1022.51 40.2964 1022.55 40.1824C1022.59 40.1188 1022.69 39.94 1022.81 39.868C1022.9 39.8216 1022.99 39.7985 1023.09 39.8008H1027.17C1027.61 39.8008 1027.91 39.868 1027.97 40.036C1028.07 40.3084 1027.95 41.14 1026.09 43.6552C1025.78 44.074 1025.5 44.4364 1025.26 44.7532C1023.58 46.966 1023.58 47.0776 1025.36 48.7576Z" fill="#4FBFA5"/>
</g>
<path d="M1177.4 54.997V46.801H1180.16L1180.57 43.592H1177.4V41.548C1177.4 40.622 1177.66 39.988 1178.98 39.988H1180.67V37.127C1179.85 37.0392 1179.03 36.9968 1178.2 37C1175.76 37 1174.08 38.492 1174.08 41.231V43.586H1171.33V46.795H1174.09V54.997H1177.4Z" fill="#4FBFA5"/>
<g clip-path="url(#clip1_21_7)">
<path d="M1260.5 34H1251.5C1247.36 34 1244 37.3585 1244 41.5V50.5C1244 54.6415 1247.36 58 1251.5 58H1260.5C1264.64 58 1268 54.6415 1268 50.5V41.5C1268 37.3585 1264.64 34 1260.5 34ZM1265.75 50.5C1265.75 53.395 1263.4 55.75 1260.5 55.75H1251.5C1248.61 55.75 1246.25 53.395 1246.25 50.5V41.5C1246.25 38.605 1248.61 36.25 1251.5 36.25H1260.5C1263.4 36.25 1265.75 38.605 1265.75 41.5V50.5Z" fill="#4FBFA5"/>
<path d="M1256 40C1252.69 40 1250 42.6865 1250 46C1250 49.3135 1252.69 52 1256 52C1259.31 52 1262 49.3135 1262 46C1262 42.6865 1259.31 40 1256 40ZM1256 49.75C1253.93 49.75 1252.25 48.067 1252.25 46C1252.25 43.9315 1253.93 42.25 1256 42.25C1258.07 42.25 1259.75 43.9315 1259.75 46C1259.75 48.067 1258.07 49.75 1256 49.75Z" fill="#4FBFA5"/>
<path d="M1262.45 40.35C1262.89 40.35 1263.25 39.992 1263.25 39.5505C1263.25 39.1089 1262.89 38.751 1262.45 38.751C1262.01 38.751 1261.65 39.1089 1261.65 39.5505C1261.65 39.992 1262.01 40.35 1262.45 40.35Z" fill="#4FBFA5"/>
</g>
<defs>
<clipPath id="clip0_21_7">
<rect x="1004" y="34" width="24" height="24" fill="white"/>
</clipPath>
<clipPath id="clip1_21_7">
<rect width="24" height="24" fill="white" transform="translate(1244 34)"/>
</clipPath>
</defs>
</svg>
