<svg width="1296" height="90" viewBox="0 0 1296 90" fill="none" xmlns="http://www.w3.org/2000/svg">
<line opacity="0.5" x1="0.5" y1="90" x2="0.499996" y2="2.18557e-08" stroke="#C4C4C4"/>
<line opacity="0.5" x1="260.5" y1="90" x2="260.5" y2="2.18557e-08" stroke="#C4C4C4"/>
<line opacity="0.5" x1="445.5" y1="90" x2="445.5" y2="2.18557e-08" stroke="#C4C4C4"/>
<line opacity="0.5" x1="644.5" y1="90" x2="644.5" y2="2.18557e-08" stroke="#C4C4C4"/>
<path d="M298.808 44.728V46.056H296.024V48.84H294.696V46.056H291.928V44.728H294.696V41.96H296.024V44.728H298.808ZM298.726 39.8H305.718V41.128L301.638 51H300.086L304.134 41.208H298.726V39.8ZM312.969 52.6C311.796 50.2533 311.209 47.8533 311.209 45.4C311.209 42.9467 311.796 40.5467 312.969 38.2H314.361C313.188 40.5467 312.601 42.9467 312.601 45.4C312.601 47.8533 313.188 50.2533 314.361 52.6H312.969ZM317.934 39.8H319.214V51H317.742V41.4L315.358 42.104L314.99 40.824L317.934 39.8ZM321.045 51V49.784L324.997 45.752C326.053 44.696 326.581 43.7893 326.581 43.032C326.581 42.4027 326.389 41.912 326.005 41.56C325.621 41.208 325.151 41.032 324.597 41.032C323.541 41.032 322.773 41.5333 322.293 42.536L321.045 41.8C321.397 41.0747 321.882 40.5253 322.501 40.152C323.13 39.7787 323.823 39.592 324.581 39.592C325.519 39.592 326.335 39.9013 327.029 40.52C327.722 41.1387 328.069 41.9707 328.069 43.016C328.069 44.1467 327.402 45.3787 326.069 46.712L323.205 49.56H328.277V51H321.045ZM333.806 44.392C334.659 44.552 335.358 44.92 335.902 45.496C336.446 46.072 336.718 46.8027 336.718 47.688C336.718 48.776 336.345 49.6347 335.598 50.264C334.851 50.8933 333.945 51.208 332.878 51.208C332.025 51.208 331.267 51.016 330.606 50.632C329.945 50.2373 329.475 49.672 329.198 48.936L330.446 48.2C330.777 49.2347 331.587 49.752 332.878 49.752C333.571 49.752 334.137 49.5707 334.574 49.208C335.011 48.8453 335.23 48.3387 335.23 47.688C335.23 47.0373 335.011 46.5307 334.574 46.168C334.137 45.7947 333.571 45.608 332.878 45.608H332.494L331.902 44.696L334.494 41.192H329.518V39.8H336.238V41.112L333.806 44.392ZM339.105 52.6H337.713C338.886 50.2533 339.473 47.8533 339.473 45.4C339.473 42.9467 338.886 40.5467 337.713 38.2H339.105C340.278 40.5467 340.865 42.9467 340.865 45.4C340.865 47.8533 340.278 50.2533 339.105 52.6ZM354.741 47.48V48.872H353.381V51H351.893V48.872H346.181V47.48L350.197 39.8H351.797L347.781 47.48H351.893V44.312H353.381V47.48H354.741ZM359.398 44.168C360.454 44.168 361.345 44.4827 362.07 45.112C362.806 45.7307 363.174 46.5893 363.174 47.688C363.174 48.776 362.801 49.6347 362.054 50.264C361.307 50.8933 360.401 51.208 359.334 51.208C358.481 51.208 357.718 51.0053 357.046 50.6C356.374 50.184 355.905 49.5867 355.638 48.808L356.902 48.088C357.051 48.632 357.339 49.048 357.766 49.336C358.193 49.6133 358.715 49.752 359.334 49.752C360.038 49.752 360.609 49.5707 361.046 49.208C361.483 48.8453 361.702 48.3387 361.702 47.688C361.702 47.0373 361.483 46.5307 361.046 46.168C360.609 45.7947 360.049 45.608 359.366 45.608H356.198L356.614 39.8H362.742V41.192H357.958L357.766 44.168H359.398ZM368.07 43.672C369.19 43.672 370.112 44.024 370.838 44.728C371.563 45.4213 371.926 46.3227 371.926 47.432C371.926 48.5413 371.563 49.448 370.838 50.152C370.112 50.856 369.19 51.208 368.07 51.208C366.939 51.208 366.011 50.856 365.286 50.152C364.571 49.448 364.214 48.5413 364.214 47.432C364.214 46.568 364.438 45.8213 364.886 45.192L368.486 39.8H370.182L367.542 43.704C367.776 43.6827 367.952 43.672 368.07 43.672ZM366.342 49.144C366.79 49.5707 367.366 49.784 368.07 49.784C368.774 49.784 369.344 49.5707 369.782 49.144C370.23 48.7067 370.454 48.136 370.454 47.432C370.454 46.728 370.23 46.1627 369.782 45.736C369.344 45.3093 368.774 45.096 368.07 45.096C367.355 45.096 366.779 45.3093 366.342 45.736C365.904 46.1627 365.686 46.728 365.686 47.432C365.686 48.136 365.904 48.7067 366.342 49.144ZM376.663 39.8H383.655V41.128L379.575 51H378.023L382.071 41.208H376.663V39.8ZM390.434 45.208C390.978 45.4853 391.405 45.8587 391.714 46.328C392.024 46.7973 392.178 47.3307 392.178 47.928C392.178 48.952 391.821 49.7573 391.106 50.344C390.392 50.92 389.469 51.208 388.338 51.208C387.218 51.208 386.301 50.92 385.586 50.344C384.872 49.7573 384.514 48.952 384.514 47.928C384.514 47.3307 384.669 46.7973 384.978 46.328C385.288 45.8587 385.714 45.4853 386.258 45.208C385.341 44.632 384.882 43.816 384.882 42.76C384.882 41.7467 385.218 40.968 385.89 40.424C386.573 39.8693 387.389 39.592 388.338 39.592C389.298 39.592 390.114 39.8693 390.786 40.424C391.469 40.968 391.81 41.7467 391.81 42.76C391.81 43.816 391.352 44.632 390.434 45.208ZM388.338 41.016C387.773 41.016 387.298 41.1653 386.914 41.464C386.541 41.7627 386.354 42.2053 386.354 42.792C386.354 43.3573 386.546 43.8 386.93 44.12C387.314 44.4293 387.784 44.584 388.338 44.584C388.893 44.584 389.362 44.4293 389.746 44.12C390.13 43.8 390.322 43.3573 390.322 42.792C390.322 42.2053 390.136 41.7627 389.762 41.464C389.389 41.1653 388.914 41.016 388.338 41.016ZM388.338 49.784C389.053 49.784 389.624 49.6187 390.05 49.288C390.488 48.9467 390.706 48.4613 390.706 47.832C390.706 47.2133 390.488 46.7387 390.05 46.408C389.624 46.0667 389.053 45.896 388.338 45.896C387.634 45.896 387.064 46.0667 386.626 46.408C386.2 46.7387 385.986 47.2133 385.986 47.832C385.986 48.4613 386.2 48.9467 386.626 49.288C387.064 49.6187 387.634 49.784 388.338 49.784ZM404.941 43.352C404.941 44.216 404.712 44.968 404.253 45.608H404.269L400.653 51H398.973L401.629 47.08C401.395 47.1013 401.213 47.112 401.085 47.112C399.955 47.112 399.027 46.7653 398.301 46.072C397.587 45.368 397.229 44.4613 397.229 43.352C397.229 42.2427 397.587 41.3413 398.301 40.648C399.027 39.944 399.955 39.592 401.085 39.592C402.216 39.592 403.139 39.944 403.853 40.648C404.579 41.3413 404.941 42.2427 404.941 43.352ZM399.357 41.656C398.92 42.0827 398.701 42.648 398.701 43.352C398.701 44.056 398.92 44.6267 399.357 45.064C399.805 45.4907 400.381 45.704 401.085 45.704C401.789 45.704 402.36 45.4907 402.797 45.064C403.245 44.6267 403.469 44.056 403.469 43.352C403.469 42.648 403.251 42.0827 402.813 41.656C402.376 41.2293 401.8 41.016 401.085 41.016C400.381 41.016 399.805 41.2293 399.357 41.656ZM413.615 49.624C412.857 50.68 411.796 51.208 410.431 51.208C409.065 51.208 408.004 50.68 407.247 49.624C406.489 48.568 406.111 47.16 406.111 45.4C406.111 43.64 406.489 42.232 407.247 41.176C408.004 40.12 409.065 39.592 410.431 39.592C411.796 39.592 412.857 40.12 413.615 41.176C414.372 42.232 414.751 43.64 414.751 45.4C414.751 47.16 414.372 48.568 413.615 49.624ZM408.335 48.616C408.825 49.3733 409.524 49.752 410.431 49.752C411.337 49.752 412.036 49.3733 412.527 48.616C413.028 47.8587 413.279 46.7867 413.279 45.4C413.279 44.0133 413.028 42.9413 412.527 42.184C412.036 41.416 411.337 41.032 410.431 41.032C409.524 41.032 408.825 41.4107 408.335 42.168C407.844 42.9253 407.599 44.0027 407.599 45.4C407.599 46.7867 407.844 47.8587 408.335 48.616Z" fill="black"/>
<rect width="270" height="40" transform="translate(675 25)" fill="#00868A"/>
<path d="M703.074 41.3102C702.434 41.3102 701.822 41.4371 701.24 41.6908C700.657 41.9445 700.156 42.2801 699.738 42.6975C699.319 43.1149 698.983 43.6141 698.728 44.1952C698.474 44.7763 698.347 45.3861 698.347 46.0245C698.347 46.6629 698.474 47.2767 698.728 47.866C698.983 48.4553 699.319 48.9586 699.738 49.376C700.156 49.7935 700.657 50.1249 701.24 50.3705C701.822 50.616 702.434 50.7388 703.074 50.7388C703.944 50.7388 704.74 50.5301 705.462 50.1127C706.184 49.6952 706.755 49.1264 707.173 48.4062C707.592 47.6859 707.801 46.892 707.801 46.0245C707.801 44.7313 707.342 43.6223 706.422 42.6975C705.503 41.7726 704.387 41.3102 703.074 41.3102ZM703.074 49.1673C702.516 49.1673 701.991 49.0241 701.498 48.7377C701.006 48.4512 700.616 48.0665 700.329 47.5836C700.041 47.1007 699.898 46.5728 699.898 45.9999C699.898 45.5743 699.98 45.1692 700.144 44.7845C700.308 44.3999 700.534 44.0643 700.821 43.7778C701.108 43.4914 701.445 43.2663 701.83 43.1026C702.216 42.9389 702.622 42.8571 703.049 42.8571C703.919 42.8571 704.662 43.164 705.277 43.7778C705.893 44.3917 706.201 45.1324 706.201 45.9999C706.201 46.8675 705.897 47.6123 705.29 48.2343C704.682 48.8563 703.944 49.1673 703.074 49.1673ZM715.606 45.8281C715.606 45.8117 715.602 45.7912 715.594 45.7667C715.586 45.7421 715.581 45.7217 715.581 45.7053C715.581 45.6889 715.577 45.6766 715.569 45.6685L715.557 45.6562V45.6316L715.532 45.5825C714.416 43.0126 712.725 40.9951 710.46 39.5301C708.195 38.065 705.725 37.3325 703.049 37.3325C701.293 37.3325 699.602 37.6517 697.977 38.2901C696.352 38.9285 694.879 39.8738 693.558 41.126C692.236 42.3783 691.198 43.8638 690.443 45.5825V45.6439L690.419 45.6807V45.7544L690.394 45.8035C690.378 45.9017 690.369 45.9754 690.369 46.0245C690.369 46.0572 690.373 46.09 690.382 46.1227C690.39 46.1554 690.394 46.1882 690.394 46.2209C690.394 46.2373 690.402 46.2618 690.419 46.2946V46.3437L690.431 46.3805L690.443 46.3928V46.4664C691.576 49.0364 693.279 51.0457 695.552 52.4944C697.825 53.943 700.308 54.6673 703 54.6673C704.756 54.6673 706.443 54.3522 708.06 53.722C709.676 53.0918 711.141 52.1547 712.455 50.9106C713.768 49.6666 714.794 48.1852 715.532 46.4664C715.549 46.4664 715.557 46.4583 715.557 46.4419V46.4051L715.569 46.3805L715.581 46.3682V46.2946L715.606 46.2455C715.622 46.1473 715.631 46.0736 715.631 46.0245C715.631 45.9917 715.627 45.959 715.618 45.9263C715.61 45.8935 715.606 45.8608 715.606 45.8281ZM703 53.0959C700.669 53.0959 698.511 52.4862 696.525 51.2667C694.539 50.0472 693.028 48.2998 691.994 46.0245C693.028 43.7492 694.547 41.9936 696.549 40.7577C698.552 39.5219 700.718 38.9039 703.049 38.9039C704.559 38.9039 706.008 39.1659 707.395 39.6897C708.782 40.2135 710.058 41.0196 711.223 42.1082C712.389 43.1967 713.316 44.5022 714.006 46.0245C712.972 48.2998 711.461 50.0472 709.475 51.2667C707.489 52.4862 705.331 53.0959 703 53.0959Z" fill="white"/>
<path d="M732.65 45.918C733.098 46.1327 733.453 46.4407 733.714 46.842C733.985 47.2433 734.12 47.7053 734.12 48.228C734.12 49.012 733.845 49.67 733.294 50.202C732.743 50.734 732.071 51 731.278 51H727.05V41.2H730.97C731.735 41.2 732.384 41.4567 732.916 41.97C733.448 42.4833 733.714 43.118 733.714 43.874C733.714 44.742 733.359 45.4233 732.65 45.918ZM730.97 42.418H728.352V45.414H730.97C731.381 45.414 731.726 45.2693 732.006 44.98C732.286 44.6907 732.426 44.336 732.426 43.916C732.426 43.5053 732.281 43.1553 731.992 42.866C731.712 42.5673 731.371 42.418 730.97 42.418ZM731.278 49.782C731.717 49.782 732.085 49.628 732.384 49.32C732.683 49.012 732.832 48.634 732.832 48.186C732.832 47.7473 732.678 47.374 732.37 47.066C732.071 46.758 731.707 46.604 731.278 46.604H728.352V49.782H731.278ZM736.965 49.768H741.515V51H735.663V41.2H741.445V42.432H736.965V45.442H741.095V46.66H736.965V49.768ZM746.643 41.2C747.548 41.2 748.3 41.5033 748.897 42.11C749.504 42.7073 749.807 43.454 749.807 44.35C749.807 45.2367 749.504 45.9833 748.897 46.59C748.3 47.1967 747.548 47.5 746.643 47.5H744.389V51H743.087V41.2H746.643ZM746.643 46.282C747.184 46.282 747.632 46.1 747.987 45.736C748.342 45.3627 748.519 44.9007 748.519 44.35C748.519 43.79 748.342 43.328 747.987 42.964C747.632 42.6 747.184 42.418 746.643 42.418H744.389V46.282H746.643ZM755.883 51.182C754.399 51.182 753.171 50.692 752.201 49.712C751.239 48.732 750.759 47.528 750.759 46.1C750.759 44.672 751.239 43.468 752.201 42.488C753.171 41.508 754.399 41.018 755.883 41.018C756.779 41.018 757.6 41.2327 758.347 41.662C759.103 42.0913 759.691 42.67 760.111 43.398L758.977 44.056C758.697 43.5147 758.277 43.0853 757.717 42.768C757.166 42.4413 756.555 42.278 755.883 42.278C754.753 42.278 753.829 42.642 753.111 43.37C752.401 44.098 752.047 45.008 752.047 46.1C752.047 47.1827 752.401 48.088 753.111 48.816C753.829 49.544 754.753 49.908 755.883 49.908C756.555 49.908 757.166 49.7493 757.717 49.432C758.277 49.1053 758.697 48.676 758.977 48.144L760.111 48.788C759.7 49.516 759.117 50.0993 758.361 50.538C757.605 50.9673 756.779 51.182 755.883 51.182ZM767.675 51V43.692L762.635 51H761.585V41.2H762.887V48.522L767.927 41.2H768.977V51H767.675ZM777.667 41.2V51H776.379V47.248H774.433L771.899 51H770.429L773.033 47.164C772.361 47.0053 771.806 46.6507 771.367 46.1C770.929 45.5493 770.709 44.9287 770.709 44.238C770.709 43.398 771.003 42.684 771.591 42.096C772.189 41.4987 772.907 41.2 773.747 41.2H777.667ZM773.747 46.072H776.379V42.418H773.747C773.271 42.418 772.861 42.5953 772.515 42.95C772.17 43.3047 771.997 43.734 771.997 44.238C771.997 44.742 772.17 45.176 772.515 45.54C772.861 45.8947 773.271 46.072 773.747 46.072ZM790.451 49.768H791.501V52.876H790.199V51H783.731V52.876H782.429V49.768H783.283C783.889 49.012 784.193 47.864 784.193 46.324V41.2H790.451V49.768ZM784.753 49.768H789.149V42.418H785.495V46.352C785.495 47.836 785.247 48.9747 784.753 49.768ZM792.19 51V49.824C792.834 49.9173 793.315 49.74 793.632 49.292C793.959 48.8347 794.122 47.99 794.122 46.758V41.2H800.59V51H799.288V42.432H795.424V46.758C795.424 47.6353 795.34 48.3727 795.172 48.97C795.013 49.558 794.78 50.0013 794.472 50.3C794.173 50.5987 793.837 50.804 793.464 50.916C793.1 51.0187 792.675 51.0467 792.19 51ZM809.29 41.2V51H808.002V47.248H806.056L803.522 51H802.052L804.656 47.164C803.984 47.0053 803.429 46.6507 802.99 46.1C802.552 45.5493 802.332 44.9287 802.332 44.238C802.332 43.398 802.626 42.684 803.214 42.096C803.812 41.4987 804.53 41.2 805.37 41.2H809.29ZM805.37 46.072H808.002V42.418H805.37C804.894 42.418 804.484 42.5953 804.138 42.95C803.793 43.3047 803.62 43.734 803.62 44.238C803.62 44.742 803.793 45.176 804.138 45.54C804.484 45.8947 804.894 46.072 805.37 46.072ZM819.498 51.182C818.014 51.182 816.786 50.692 815.816 49.712C814.854 48.732 814.374 47.528 814.374 46.1C814.374 44.672 814.854 43.468 815.816 42.488C816.786 41.508 818.014 41.018 819.498 41.018C820.394 41.018 821.215 41.2327 821.962 41.662C822.718 42.0913 823.306 42.67 823.726 43.398L822.592 44.056C822.312 43.5147 821.892 43.0853 821.332 42.768C820.781 42.4413 820.17 42.278 819.498 42.278C818.368 42.278 817.444 42.642 816.726 43.37C816.016 44.098 815.662 45.008 815.662 46.1C815.662 47.1827 816.016 48.088 816.726 48.816C817.444 49.544 818.368 49.908 819.498 49.908C820.17 49.908 820.781 49.7493 821.332 49.432C821.892 49.1053 822.312 48.676 822.592 48.144L823.726 48.788C823.315 49.516 822.732 50.0993 821.976 50.538C821.22 50.9673 820.394 51.182 819.498 51.182ZM824.141 51V49.824C824.785 49.9173 825.266 49.74 825.583 49.292C825.91 48.8347 826.073 47.99 826.073 46.758V41.2H832.541V51H831.239V42.432H827.375V46.758C827.375 47.6353 827.291 48.3727 827.123 48.97C826.965 49.558 826.731 50.0013 826.423 50.3C826.125 50.5987 825.789 50.804 825.415 50.916C825.051 51.0187 824.627 51.0467 824.141 51ZM841.102 51L840.304 48.802H835.894L835.096 51H833.71L837.364 41.2H838.834L842.488 51H841.102ZM836.342 47.584H839.856L838.092 42.754L836.342 47.584ZM847.326 45.05C848.175 45.05 848.894 45.3393 849.482 45.918C850.07 46.4873 850.364 47.1873 850.364 48.018C850.364 48.8673 850.07 49.5767 849.482 50.146C848.903 50.7153 848.184 51 847.326 51H843.644V41.2H849.524V42.432H844.946V45.05H847.326ZM847.326 49.782C847.811 49.782 848.222 49.614 848.558 49.278C848.903 48.942 849.076 48.522 849.076 48.018C849.076 47.5233 848.903 47.108 848.558 46.772C848.222 46.436 847.811 46.268 847.326 46.268H844.946V49.782H847.326ZM859.913 49.698C858.933 50.6873 857.734 51.182 856.315 51.182C854.896 51.182 853.697 50.6873 852.717 49.698C851.737 48.7087 851.247 47.5093 851.247 46.1C851.247 44.6813 851.737 43.482 852.717 42.502C853.697 41.5127 854.896 41.018 856.315 41.018C857.734 41.018 858.933 41.5127 859.913 42.502C860.902 43.482 861.397 44.6813 861.397 46.1C861.397 47.5093 860.902 48.7087 859.913 49.698ZM853.613 48.816C854.341 49.544 855.242 49.908 856.315 49.908C857.388 49.908 858.284 49.544 859.003 48.816C859.731 48.0787 860.095 47.1733 860.095 46.1C860.095 45.0173 859.731 44.112 859.003 43.384C858.284 42.6467 857.388 42.278 856.315 42.278C855.242 42.278 854.341 42.6467 853.613 43.384C852.894 44.112 852.535 45.0173 852.535 46.1C852.535 47.1733 852.894 48.0787 853.613 48.816ZM868.562 45.918C869.01 46.1327 869.365 46.4407 869.626 46.842C869.897 47.2433 870.032 47.7053 870.032 48.228C870.032 49.012 869.757 49.67 869.206 50.202C868.655 50.734 867.983 51 867.19 51H862.962V41.2H866.882C867.647 41.2 868.296 41.4567 868.828 41.97C869.36 42.4833 869.626 43.118 869.626 43.874C869.626 44.742 869.271 45.4233 868.562 45.918ZM866.882 42.418H864.264V45.414H866.882C867.293 45.414 867.638 45.2693 867.918 44.98C868.198 44.6907 868.338 44.336 868.338 43.916C868.338 43.5053 868.193 43.1553 867.904 42.866C867.624 42.5673 867.283 42.418 866.882 42.418ZM867.19 49.782C867.629 49.782 867.997 49.628 868.296 49.32C868.595 49.012 868.744 48.634 868.744 48.186C868.744 47.7473 868.59 47.374 868.282 47.066C867.983 46.758 867.619 46.604 867.19 46.604H864.264V49.782H867.19ZM877.665 51V43.692L872.625 51H871.575V41.2H872.877V48.522L877.917 41.2H878.967V51H877.665ZM888.246 49.768H889.296V52.876H887.994V51H881.526V52.876H880.224V49.768H881.078C881.684 49.012 881.988 47.864 881.988 46.324V41.2H888.246V49.768ZM882.548 49.768H886.944V42.418H883.29V46.352C883.29 47.836 883.042 48.9747 882.548 49.768ZM897.392 41.2V51H896.104V47.248H894.158L891.624 51H890.154L892.758 47.164C892.086 47.0053 891.531 46.6507 891.092 46.1C890.653 45.5493 890.434 44.9287 890.434 44.238C890.434 43.398 890.728 42.684 891.316 42.096C891.913 41.4987 892.632 41.2 893.472 41.2H897.392ZM893.472 46.072H896.104V42.418H893.472C892.996 42.418 892.585 42.5953 892.24 42.95C891.895 43.3047 891.722 43.734 891.722 44.238C891.722 44.742 891.895 45.176 892.24 45.54C892.585 45.8947 892.996 46.072 893.472 46.072ZM910.665 49.768H911.715V52.876H910.413V51H899.493V41.2H900.795V49.768H904.435V41.2H905.723V49.768H909.363V41.2H910.665V49.768ZM919.31 51V43.692L914.27 51H913.22V41.2H914.522V48.522L919.562 41.2H920.612V51H919.31ZM929.68 51H928.196L925.788 47.136L923.38 51H921.91L925.06 45.96L922.092 41.2H923.562L925.788 44.77L928.014 41.2H929.484L926.53 45.946L929.68 51Z" fill="white"/>
<path d="M484.128 39.8H485.6V51H484.128V45.96H478.688V51H477.2V39.8H478.688V44.552H484.128V39.8ZM494.477 43H495.869V51H494.477V49.624C493.784 50.68 492.776 51.208 491.453 51.208C490.333 51.208 489.378 50.8027 488.589 49.992C487.8 49.1707 487.405 48.1733 487.405 47C487.405 45.8267 487.8 44.8347 488.589 44.024C489.378 43.2027 490.333 42.792 491.453 42.792C492.776 42.792 493.784 43.32 494.477 44.376V43ZM491.629 49.864C492.44 49.864 493.117 49.592 493.661 49.048C494.205 48.4933 494.477 47.8107 494.477 47C494.477 46.1893 494.205 45.512 493.661 44.968C493.117 44.4133 492.44 44.136 491.629 44.136C490.829 44.136 490.157 44.4133 489.613 44.968C489.069 45.512 488.797 46.1893 488.797 47C488.797 47.8107 489.069 48.4933 489.613 49.048C490.157 49.592 490.829 49.864 491.629 49.864ZM507.546 43H508.938V51H497.978V43H499.37V49.672H502.762V43H504.154V49.672H507.546V43ZM516.88 43H518V51H516.624V45.384L512.192 51H511.072V43H512.448V48.616L516.88 43ZM527.879 51.208C526.673 51.208 525.671 50.808 524.871 50.008C524.071 49.1973 523.671 48.1947 523.671 47C523.671 45.8053 524.071 44.808 524.871 44.008C525.671 43.1973 526.673 42.792 527.879 42.792C528.668 42.792 529.377 42.984 530.007 43.368C530.636 43.7413 531.105 44.248 531.415 44.888L530.247 45.56C530.044 45.1333 529.729 44.792 529.303 44.536C528.887 44.28 528.412 44.152 527.879 44.152C527.079 44.152 526.407 44.424 525.863 44.968C525.329 45.512 525.062 46.1893 525.062 47C525.062 47.8 525.329 48.472 525.863 49.016C526.407 49.56 527.079 49.832 527.879 49.832C528.412 49.832 528.892 49.7093 529.319 49.464C529.745 49.208 530.071 48.8667 530.295 48.44L531.479 49.128C531.137 49.7573 530.647 50.264 530.007 50.648C529.367 51.0213 528.657 51.208 527.879 51.208ZM539.368 43H540.76V51H539.368V49.624C538.674 50.68 537.666 51.208 536.344 51.208C535.224 51.208 534.269 50.8027 533.48 49.992C532.69 49.1707 532.296 48.1733 532.296 47C532.296 45.8267 532.69 44.8347 533.48 44.024C534.269 43.2027 535.224 42.792 536.344 42.792C537.666 42.792 538.674 43.32 539.368 44.376V43ZM536.52 49.864C537.33 49.864 538.008 49.592 538.552 49.048C539.096 48.4933 539.368 47.8107 539.368 47C539.368 46.1893 539.096 45.512 538.552 44.968C538.008 44.4133 537.33 44.136 536.52 44.136C535.72 44.136 535.048 44.4133 534.504 44.968C533.96 45.512 533.688 46.1893 533.688 47C533.688 47.8107 533.96 48.4933 534.504 49.048C535.048 49.592 535.72 49.864 536.52 49.864ZM549.541 43V51H548.149V44.344H544.997V47.608C544.997 48.92 544.73 49.8373 544.197 50.36C543.674 50.872 542.933 51.0853 541.973 51V49.688C542.517 49.7627 542.922 49.6453 543.189 49.336C543.466 49.016 543.605 48.4293 543.605 47.576V43H549.541ZM558.402 49.992C557.58 50.8027 556.583 51.208 555.41 51.208C554.236 51.208 553.239 50.8027 552.418 49.992C551.607 49.1813 551.202 48.184 551.202 47C551.202 45.816 551.607 44.8187 552.418 44.008C553.239 43.1973 554.236 42.792 555.41 42.792C556.583 42.792 557.58 43.1973 558.402 44.008C559.223 44.8187 559.634 45.816 559.634 47C559.634 48.184 559.223 49.1813 558.402 49.992ZM555.41 49.848C556.21 49.848 556.882 49.576 557.426 49.032C557.97 48.488 558.242 47.8107 558.242 47C558.242 46.1893 557.97 45.512 557.426 44.968C556.882 44.424 556.21 44.152 555.41 44.152C554.62 44.152 553.954 44.424 553.41 44.968C552.866 45.512 552.594 46.1893 552.594 47C552.594 47.8107 552.866 48.488 553.41 49.032C553.954 49.576 554.62 49.848 555.41 49.848ZM566.811 43H568.203V51H566.811V47.656H562.667V51H561.275V43H562.667V46.328H566.811V43ZM573.698 45.88C574.498 45.88 575.159 46.12 575.682 46.6C576.215 47.0693 576.482 47.6827 576.482 48.44C576.482 49.1973 576.215 49.816 575.682 50.296C575.159 50.7653 574.498 51 573.698 51H570.322V43H571.714V45.88H573.698ZM577.522 43H578.914V51H577.522V43ZM573.698 49.704C574.092 49.704 574.423 49.592 574.69 49.368C574.967 49.1333 575.106 48.824 575.106 48.44C575.106 48.056 574.967 47.7467 574.69 47.512C574.423 47.2773 574.092 47.16 573.698 47.16H571.714V49.704H573.698Z" fill="black"/>
<circle cx="605" cy="46" r="10" fill="#4FBFA5"/>
<path d="M605 50L601 43L609 43L605 50Z" fill="white"/>
<line opacity="0.5" x1="975.5" y1="90" x2="975.5" y2="2.18557e-08" stroke="#C4C4C4"/>
<line opacity="0.5" x1="1055.5" y1="90" x2="1055.5" y2="2.18557e-08" stroke="#C4C4C4"/>
<line opacity="0.5" x1="1135.5" y1="90" x2="1135.5" y2="2.18557e-08" stroke="#C4C4C4"/>
<line opacity="0.5" x1="1215.5" y1="90" x2="1215.5" y2="2.18557e-08" stroke="#C4C4C4"/>
<line opacity="0.5" x1="1295.5" y1="90" x2="1295.5" y2="2.18557e-08" stroke="#C4C4C4"/>
<path d="M76.4545 72.0943L74.5248 31.6301C74.4895 30.887 74.9671 30.26 75.5698 30.26H79.4283C80.031 30.26 80.5086 30.887 80.4734 31.6301L78.5437 72.0943C78.4679 73.718 76.532 73.718 76.4545 72.0943Z" fill="url(#paint0_linear_20_5)"/>
<path d="M77.4995 28.0047C80.1546 28.0047 82.307 25.8385 82.307 23.1663C82.307 20.4941 80.1546 18.3279 77.4995 18.3279C74.8444 18.3279 72.692 20.4941 72.692 23.1663C72.692 25.8385 74.8444 28.0047 77.4995 28.0047Z" fill="url(#paint1_radial_20_5)"/>
<path d="M80.5835 31.8098H74.4155C73.7828 31.8098 73.27 31.2937 73.27 30.657C73.27 30.0203 73.7828 29.5042 74.4155 29.5042H80.5835C81.2161 29.5042 81.729 30.0203 81.729 30.657C81.729 31.2937 81.2161 31.8098 80.5835 31.8098Z" fill="#00868A"/>
<path d="M117.531 42.6094L88.9791 31.3771C88.7121 31.2716 88.4072 31.3283 88.2002 31.5279C85.4131 34.2131 81.2541 35.0325 78.1261 35.2321C77.9172 35.2454 77.7084 35.2525 77.4996 35.2525V44.0194C79.5051 44.0194 81.5114 44.6269 83.2323 45.8409C84.5637 46.7801 85.8537 47.7449 86.9895 48.6211C89.6514 50.6732 93.1161 51.3489 96.3481 50.4515C96.9587 50.2821 97.09 49.4698 96.5649 49.1141L88.0927 43.6346C87.3217 43.1122 88.0143 41.9266 88.8425 42.3514L99.8154 48.9811C99.9784 49.0645 100.166 49.0849 100.342 49.037L106.118 47.4869C106.776 47.3104 106.869 46.4094 106.261 46.1008L91.96 39.8532C91.122 39.4284 91.6807 38.155 92.5574 38.4911L110.461 45.9855C110.634 46.052 110.825 46.0502 110.997 45.9819L117.531 43.9982C118.156 43.7481 118.156 42.8577 117.531 42.6094Z" fill="url(#paint2_linear_20_5)"/>
<path d="M76.8731 35.2321C73.745 35.0316 69.586 34.2131 66.799 31.5279C66.5919 31.3283 66.287 31.2716 66.02 31.3771L37.4693 42.6094C36.8436 42.8568 36.8436 43.7481 37.4684 43.9964L44.002 45.9802C44.1739 46.0485 44.3651 46.0502 44.5378 45.9837L62.4417 38.4893C63.3184 38.1532 63.8762 39.4267 63.0391 39.8515L48.7382 46.099C48.1302 46.4076 48.2227 47.3086 48.8809 47.4851L54.6568 49.0352C54.833 49.0822 55.0216 49.0627 55.1837 48.9794L66.1566 42.3496C66.9849 41.9248 67.6783 43.1105 66.9065 43.6328L58.4343 49.1124C57.9091 49.468 58.0404 50.2803 58.651 50.4497C61.8839 51.3471 65.3477 50.6714 68.0096 48.6193C69.1463 47.7432 70.4354 46.7783 71.7668 45.8392C73.4877 44.6251 75.4941 44.0177 77.4995 44.0177V35.2507C77.2907 35.2516 77.0819 35.2454 76.8731 35.2321Z" fill="url(#paint3_linear_20_5)"/>
<path d="M75.4421 50.8658C74.1679 50.7319 72.959 50.5988 71.7774 50.3461C69.6151 49.8832 67.9814 49.0239 67.2941 47.989C66.2905 46.477 67.4184 44.5287 69.0503 43.3864C69.5093 43.0645 69.623 42.4296 69.3032 41.9667C68.9833 41.5046 68.3524 41.3902 67.8924 41.7122C65.0437 43.7066 64.0833 46.8228 65.6085 49.1223C66.88 51.0387 69.4353 51.9308 71.3553 52.3414C71.4575 52.3636 71.5606 52.3831 71.6628 52.4035C72.8013 51.8297 74.1318 51.5814 75.4659 51.3846L75.4421 50.8658Z" fill="url(#paint4_linear_20_5)"/>
<path d="M79.0415 61.684C79.9975 61.9704 80.6293 62.3659 80.832 62.8315C80.9756 63.1614 80.8029 63.5746 80.402 63.8602C80.0257 64.128 79.4697 64.277 78.9172 64.2832L78.8203 66.3246C78.845 66.3246 78.8697 66.3255 78.8943 66.3255C79.8698 66.3255 80.8408 66.0462 81.573 65.5256C82.7617 64.6796 83.2208 63.2359 82.6885 62.0139C82.4727 61.5181 82.1273 61.0845 81.6541 60.7156C80.8892 60.9284 80.0284 61.0871 79.0653 61.1918L79.0415 61.684Z" fill="url(#paint5_linear_20_5)"/>
<path d="M84.4703 53.1511C84.1222 52.8523 83.7407 52.6075 83.3353 52.4036C82.0956 52.6492 80.8285 52.7831 79.6011 52.9126C79.5544 52.9179 79.5059 52.9223 79.4592 52.9277L79.4354 53.4323C80.9254 53.6584 82.2797 53.951 83.1547 54.7031C83.6755 55.1509 83.9768 55.7495 83.9795 56.3445C83.9821 56.8456 83.7724 57.2952 83.3732 57.6464C82.5326 58.3842 81.1193 58.8817 79.164 59.1273C78.8847 59.1628 78.5948 59.1921 78.2935 59.2169C78.0203 59.2391 77.756 59.2675 77.5004 59.2994C76.9057 59.3739 76.3585 59.4723 75.8589 59.5965C74.805 59.859 73.9662 60.2323 73.3467 60.7156C72.8735 61.0845 72.5281 61.5173 72.3123 62.0139C71.7809 63.2359 72.24 64.6796 73.4278 65.5257C74.1591 66.0462 75.131 66.3256 76.1065 66.3256C76.1311 66.3256 76.1558 66.3247 76.1805 66.3247L76.0835 64.2832C75.5311 64.2779 74.9751 64.128 74.5988 63.8602C74.1979 63.5747 74.0261 63.1614 74.1697 62.8315C74.3724 62.366 75.0042 61.9713 75.9602 61.684C76.4069 61.5501 76.9242 61.4401 77.5022 61.3568C77.8062 61.3133 78.1252 61.277 78.4609 61.2495C78.6679 61.2326 78.8688 61.2122 79.0671 61.1909C80.0302 61.0863 80.8911 60.9276 81.6559 60.7147C82.9344 60.3591 83.946 59.8519 84.7082 59.1823C85.5523 58.441 86.0149 57.4291 86.0087 56.333C85.9999 55.1438 85.4404 53.9839 84.4703 53.1511Z" fill="url(#paint6_linear_20_5)"/>
<path d="M87.1066 41.7122C86.6475 41.3902 86.0158 41.5046 85.6959 41.9667C85.376 42.4287 85.4897 43.0645 85.9488 43.3864C87.5807 44.5295 88.7076 46.477 87.7049 47.989C87.0185 49.0239 85.384 49.8832 83.2217 50.3461C82.0409 50.5988 80.832 50.731 79.557 50.8658C79.5015 50.872 79.446 50.8773 79.3905 50.8835C78.7701 50.9482 78.1339 51.0156 77.4995 51.0972C77.2819 51.1256 77.0651 51.1549 76.8484 51.1868C76.621 51.2205 76.3919 51.2524 76.1628 51.2843C75.9311 51.3172 75.6994 51.35 75.4667 51.3837C74.1327 51.5805 72.8013 51.8297 71.6637 52.4026C71.2584 52.6066 70.8769 52.8513 70.5288 53.1502C69.5596 53.9838 68.9991 55.1428 68.993 56.3321C68.9868 57.4281 69.4494 58.44 70.2935 59.1814C71.0557 59.8509 72.0664 60.3582 73.3458 60.7138C73.9653 60.2305 74.8041 59.8571 75.858 59.5946L75.8359 59.1255C73.8807 58.8798 72.4673 58.3824 71.6267 57.6445C71.2276 57.2934 71.0178 56.8437 71.0205 56.3427C71.024 55.7468 71.3245 55.1491 71.8452 54.7012C72.7211 53.9492 74.0745 53.6566 75.5645 53.4304C75.8536 53.387 76.147 53.3453 76.443 53.3036C76.6765 53.2708 76.91 53.238 77.1427 53.2034C77.2607 53.1857 77.3806 53.1706 77.4995 53.1546C78.148 53.0668 78.8098 52.9941 79.4583 52.9258C79.5059 52.9205 79.5535 52.9161 79.6002 52.9108C80.8285 52.7822 82.0947 52.6474 83.3344 52.4017C83.4367 52.3813 83.5398 52.3618 83.642 52.3396C85.562 51.9291 88.1173 51.036 89.3888 49.1205C90.9149 46.8228 89.9553 43.7066 87.1066 41.7122Z" fill="url(#paint7_linear_20_5)"/>
<path d="M160.289 32.1562L160.457 32.309V33.2426L160.307 33.3763C158.943 33.4145 158.096 33.4851 157.768 33.5863C157.44 33.6875 157.207 33.8555 157.071 34.0904C156.935 34.3252 156.856 34.7854 156.838 35.4708C156.819 36.1562 156.785 38.0942 156.735 41.2808V50.0636C156.735 51.3333 156.754 52.7691 156.791 54.3691C156.828 55.9691 156.905 56.9008 157.024 57.1605C157.142 57.4201 157.356 57.6111 157.665 57.7314C157.975 57.8516 158.857 57.9318 160.307 57.97L160.457 58.1037V59.0373L160.289 59.1901C158.268 59.0755 156.506 59.0182 155.005 59.0182C153.987 59.0182 152.257 59.0755 149.814 59.1901L149.646 59.0373V58.1228L149.796 57.97C151.16 57.9318 152.007 57.8631 152.335 57.76C152.663 57.6588 152.896 57.4908 153.032 57.2559C153.168 57.0211 153.249 56.5552 153.275 55.8564C153.299 55.1576 153.331 53.2273 153.368 50.0655V36.0818L146.949 49.8364C145.336 53.2789 143.928 56.517 142.726 59.5528H142C141.305 57.9146 140.734 56.6068 140.289 55.6273L131.395 36.7099V50.0273C131.395 51.2722 131.41 52.7042 131.442 54.3232C131.474 55.9423 131.55 56.8798 131.675 57.1337C131.798 57.3877 132.016 57.5786 132.326 57.7046C132.635 57.8325 133.517 57.907 134.968 57.9337L135.117 58.0865V59.001L134.949 59.1729L133.758 59.1156C132.529 59.0526 131.475 59.0201 130.595 59.0201C130.198 59.0201 128.716 59.0698 126.149 59.1729L126 59.0201V58.1056L126.149 57.9337C127.514 57.9089 128.356 57.8459 128.679 57.7428C129.001 57.6416 129.234 57.4698 129.376 57.2292C129.518 56.9886 129.6 56.538 129.618 55.8774C129.637 55.2168 129.665 53.2674 129.702 50.0292V41.3037C129.702 40.1486 129.687 38.7414 129.656 37.0842C129.624 35.4269 129.549 34.4684 129.432 34.2068C129.315 33.9472 129.1 33.7524 128.791 33.6264C128.481 33.5004 127.599 33.424 126.149 33.3973L126 33.2446V32.3281L126.167 32.1562C127.023 32.2193 128.177 32.2517 129.628 32.2517C130.993 32.2517 132.182 32.2212 133.2 32.1562C134.242 34.6212 135.24 36.8493 136.196 38.8445L143.248 53.6664L149.611 40.0818C151.336 36.4121 152.495 33.7696 153.09 32.1562C154.281 32.2193 155.452 32.2517 156.606 32.2517C157.647 32.2517 158.874 32.2212 160.289 32.1562Z" fill="#333333"/>
<path d="M162.688 32.2333L162.837 32.0996C167.092 32.176 169.814 32.2142 171.006 32.2142C175.074 32.2142 178.695 32.176 181.87 32.0996L181.963 32.2333C181.654 33.4533 181.424 35.3645 181.275 37.9688L181.163 38.1215H180.251L180.084 37.9688C180.097 37.8542 180.102 37.7531 180.102 37.6633C180.102 36.5846 180.022 35.5554 179.86 34.576C179.079 34.2208 177.995 33.9879 176.614 33.881C175.231 33.7741 174.192 33.7187 173.498 33.7187C172.518 33.7187 171.267 33.7893 169.74 33.9287L169.665 36.976L169.609 40.4624L169.553 44.3306C170.892 44.407 172.126 44.4452 173.256 44.4452C174.397 44.4452 175.352 44.407 176.122 44.3306C176.89 44.2542 177.341 44.1759 177.47 44.0919C177.6 44.0098 177.699 43.8514 177.768 43.6165C177.835 43.3817 177.895 42.9654 177.945 42.3678L178.02 41.186L178.169 41.0332H179.025L179.174 41.186C179.15 42.5702 179.118 43.9621 179.081 45.3578L179.174 49.6442L179.025 49.7969H178.169L178.02 49.6442L177.889 48.5005C177.777 47.6108 177.697 47.0819 177.647 46.9101C177.596 46.7382 177.483 46.5893 177.302 46.4633C177.121 46.3373 176.661 46.2342 175.917 46.1578C175.173 46.0814 174.149 46.0432 172.848 46.0432C172.128 46.0432 171.03 46.0757 169.555 46.1387C169.494 47.206 169.462 48.9836 169.462 51.4733C169.462 54.1406 169.494 56.1034 169.555 57.3597H172.978C175.993 57.3597 177.878 57.3215 178.633 57.2451C179.39 57.1687 180.11 56.9855 180.792 56.6933C180.904 56.4012 181.087 55.7253 181.34 54.6637C181.594 53.6041 181.741 52.9396 181.778 52.6723L181.965 52.5387H182.858L183.007 52.6723C182.895 53.2184 182.787 54.1711 182.681 55.5306C182.575 56.89 182.522 58.0528 182.522 59.0169L182.392 59.1697C180.022 59.0933 176.922 59.0551 173.09 59.0551L168.03 59.0169C166.852 59.0169 165.623 59.0666 164.346 59.1697L164.197 59.0169V58.3888L164.346 58.1979C165.077 57.816 165.496 57.5792 165.602 57.4838C165.707 57.3883 165.795 56.2771 165.863 54.1501C165.931 52.0232 165.966 50.4003 165.966 49.2833V42.2934L165.947 37.9688C165.947 37.0294 165.934 36.2638 165.91 35.6738C165.886 35.0838 165.841 34.6619 165.78 34.406C165.718 34.1521 165.645 33.9745 165.565 33.8734C165.485 33.7722 165.354 33.6862 165.174 33.6156C164.993 33.545 164.687 33.4858 164.253 33.4342L162.839 33.3197L162.69 33.186V32.2333H162.688Z" fill="#333333"/>
<path d="M185.162 32.2324L185.312 32.0987C187.458 32.1999 188.921 32.2515 189.702 32.2515L198.409 32.0605C200.889 32.0605 202.923 32.2992 204.512 32.7746C206.1 33.25 207.51 34.0768 208.744 35.251C209.978 36.4252 210.914 37.7923 211.554 39.3464C212.191 40.9025 212.512 42.5636 212.512 44.3278C212.512 46.0424 212.221 47.7378 211.638 49.4142C211.054 51.0906 210.226 52.5932 209.154 53.9201C208.082 55.2471 206.859 56.3182 205.489 57.1297C204.118 57.943 202.744 58.4853 201.368 58.7583C199.992 59.0313 198.585 59.1669 197.145 59.1669C196.178 59.1669 194.354 59.1287 191.675 59.0523C190.795 59.0275 190.211 59.0142 189.926 59.0142C189.07 59.0142 188.034 59.0638 186.82 59.1669L186.671 59.0142V58.386L186.82 58.1951C187.551 57.8132 187.97 57.5765 188.077 57.481C188.181 57.3855 188.269 56.2743 188.338 54.1473C188.405 52.0204 188.44 50.3975 188.44 49.2805V42.2925L188.421 37.9679C188.421 37.0286 188.408 36.2629 188.384 35.6729C188.36 35.083 188.315 34.661 188.254 34.4052C188.192 34.1512 188.119 33.9737 188.039 33.8725C187.959 33.7713 187.829 33.6854 187.648 33.6147C187.469 33.5441 187.161 33.4849 186.727 33.4333L185.313 33.3188L185.164 33.1851V32.2324H185.162ZM192.046 57.0953C193.312 57.3492 194.768 57.4772 196.418 57.4772C199.308 57.4772 201.618 56.9827 203.348 55.9917C205.078 55.0008 206.371 53.5345 207.226 51.5908C208.082 49.6471 208.511 47.4572 208.511 45.019C208.511 41.4238 207.575 38.6362 205.701 36.6543C203.829 34.6725 200.876 33.6815 196.845 33.6815C195.184 33.6815 193.582 33.8095 192.046 34.0634C191.947 36.1465 191.897 38.4968 191.897 41.1125V47.0944L191.934 52.6963C191.934 53.7865 191.971 55.2547 192.046 57.0953Z" fill="#333333"/>
<path d="M215.189 32.0996L217.514 32.176C219.04 32.2275 220.039 32.2524 220.511 32.2524C220.932 32.2524 222.713 32.2027 225.85 32.0996L226 32.2333V33.186L225.85 33.3197C224.995 33.3445 224.335 33.3827 223.868 33.4342C223.402 33.4858 223.065 33.5812 222.854 33.7206C222.644 33.86 222.504 34.1865 222.435 34.702C222.366 35.2156 222.332 35.9316 222.332 36.8461L222.295 41.228V50.0489L222.314 53.7644C222.327 55.2002 222.362 56.1262 222.425 56.5463C222.487 56.9663 222.576 57.2451 222.696 57.3845C222.813 57.5238 223.041 57.6422 223.374 57.7377C223.71 57.8331 224.534 57.9057 225.849 57.9573L225.998 58.0718V59.0246L225.849 59.1773C225.787 59.1773 224.694 59.1391 222.575 59.0627C221.695 59.0379 221.005 59.0246 220.509 59.0246C220.125 59.0246 218.35 59.0742 215.188 59.1773L215.038 59.0246V58.0718L215.188 57.9573C216.342 57.9076 217.11 57.8427 217.494 57.7663C217.878 57.69 218.135 57.5926 218.266 57.4704C218.396 57.3501 218.501 57.0923 218.583 56.699C218.663 56.3057 218.71 55.4293 218.723 54.0699L218.741 50.0508V41.2299L218.704 37.5144C218.691 36.0671 218.657 35.1335 218.601 34.7134C218.545 34.2934 218.458 34.0146 218.34 33.8753C218.223 33.7359 217.995 33.6213 217.662 33.5316C217.326 33.4438 216.502 33.3731 215.188 33.3216L215.038 33.1879V32.2333L215.189 32.0996Z" fill="#333333"/>
<path d="M1106.06 39.9451C1105.94 39.5012 1105.7 39.0964 1105.38 38.7713C1105.05 38.4462 1104.65 38.2121 1104.2 38.0926C1102.57 37.6501 1096 37.6501 1096 37.6501C1096 37.6501 1089.43 37.6501 1087.79 38.0926C1087.35 38.2121 1086.95 38.4462 1086.62 38.7713C1086.3 39.0964 1086.06 39.5012 1085.94 39.9451C1085.64 41.6126 1085.49 43.305 1085.5 45.0001C1085.49 46.6953 1085.64 48.3877 1085.94 50.0551C1086.06 50.4991 1086.3 50.9039 1086.62 51.229C1086.95 51.5541 1087.35 51.7881 1087.79 51.9076C1089.43 52.3501 1096 52.3501 1096 52.3501C1096 52.3501 1102.57 52.3501 1104.2 51.9076C1104.65 51.7881 1105.05 51.5541 1105.38 51.229C1105.7 50.9039 1105.94 50.4991 1106.06 50.0551C1106.36 48.3877 1106.51 46.6953 1106.5 45.0001C1106.51 43.305 1106.36 41.6126 1106.06 39.9451ZM1093.9 48.1501V41.8501L1099.35 45.0001L1093.9 48.1501Z" fill="#4FBFA5"/>
<g clip-path="url(#clip0_20_5)">
<path fill-rule="evenodd" clip-rule="evenodd" d="M1025.36 47.7577C1025.36 47.7577 1027.3 49.6741 1027.78 50.5609C1027.79 50.5736 1027.8 50.5878 1027.8 50.6029C1028 50.9305 1028.05 51.1873 1027.95 51.3769C1027.79 51.6901 1027.24 51.8473 1027.06 51.8605H1023.63C1023.39 51.8605 1022.89 51.7981 1022.29 51.3805C1021.82 51.0577 1021.36 50.5261 1020.92 50.0065C1020.25 49.2349 1019.68 48.5653 1019.1 48.5653C1019.02 48.5651 1018.95 48.5773 1018.88 48.6013C1018.44 48.7405 1017.88 49.3681 1017.88 51.0397C1017.88 51.5629 1017.47 51.8605 1017.18 51.8605H1015.61C1015.07 51.8605 1012.29 51.6733 1009.82 49.0681C1006.79 45.8785 1004.07 39.48 1004.04 39.4236C1003.87 39.0096 1004.23 38.784 1004.61 38.784H1008.08C1008.54 38.784 1008.69 39.0648 1008.8 39.3168C1008.92 39.606 1009.37 40.7628 1010.12 42.0624C1011.32 44.1768 1012.06 45.0373 1012.65 45.0373C1012.77 45.0376 1012.87 45.0086 1012.97 44.9533C1013.74 44.5285 1013.6 41.7684 1013.56 41.1996C1013.56 41.0892 1013.56 39.9672 1013.17 39.4248C1012.88 39.036 1012.4 38.8848 1012.11 38.8296C1012.19 38.7168 1012.35 38.544 1012.57 38.442C1013.09 38.178 1014.05 38.1396 1015 38.1396H1015.53C1016.56 38.154 1016.82 38.22 1017.2 38.3148C1017.95 38.4948 1017.97 38.9832 1017.9 40.6464C1017.88 41.1216 1017.86 41.6568 1017.86 42.2868C1017.86 42.4212 1017.85 42.5712 1017.85 42.7236C1017.83 43.5768 1017.8 44.5381 1018.4 44.9329C1018.48 44.9815 1018.57 45.0073 1018.66 45.0072C1018.87 45.0072 1019.5 45.0072 1021.19 42.0972C1021.94 40.812 1022.51 39.2964 1022.55 39.1824C1022.59 39.1188 1022.69 38.94 1022.81 38.868C1022.9 38.8217 1022.99 38.7986 1023.09 38.8008H1027.17C1027.61 38.8008 1027.91 38.868 1027.97 39.036C1028.07 39.3084 1027.95 40.14 1026.09 42.6552C1025.78 43.074 1025.5 43.4365 1025.26 43.7533C1023.58 45.9661 1023.58 46.0777 1025.36 47.7577Z" fill="#4FBFA5"/>
</g>
<path d="M1177.4 53.9969V45.8009H1180.16L1180.57 42.5919H1177.4V40.5479C1177.4 39.6219 1177.66 38.9879 1178.98 38.9879H1180.67V36.1269C1179.85 36.0391 1179.03 35.9967 1178.2 35.9999C1175.76 35.9999 1174.08 37.4919 1174.08 40.2309V42.5859H1171.33V45.7949H1174.09V53.9969H1177.4Z" fill="#4FBFA5"/>
<g clip-path="url(#clip1_20_5)">
<path d="M1260.5 33H1251.5C1247.36 33 1244 36.3585 1244 40.5V49.5C1244 53.6415 1247.36 57 1251.5 57H1260.5C1264.64 57 1268 53.6415 1268 49.5V40.5C1268 36.3585 1264.64 33 1260.5 33ZM1265.75 49.5C1265.75 52.395 1263.4 54.75 1260.5 54.75H1251.5C1248.61 54.75 1246.25 52.395 1246.25 49.5V40.5C1246.25 37.605 1248.61 35.25 1251.5 35.25H1260.5C1263.4 35.25 1265.75 37.605 1265.75 40.5V49.5Z" fill="#4FBFA5"/>
<path d="M1256 39C1252.69 39 1250 41.6865 1250 45C1250 48.3135 1252.69 51 1256 51C1259.31 51 1262 48.3135 1262 45C1262 41.6865 1259.31 39 1256 39ZM1256 48.75C1253.93 48.75 1252.25 47.067 1252.25 45C1252.25 42.9315 1253.93 41.25 1256 41.25C1258.07 41.25 1259.75 42.9315 1259.75 45C1259.75 47.067 1258.07 48.75 1256 48.75Z" fill="#4FBFA5"/>
<path d="M1262.45 39.35C1262.89 39.35 1263.25 38.992 1263.25 38.5505C1263.25 38.1089 1262.89 37.751 1262.45 37.751C1262.01 37.751 1261.65 38.1089 1261.65 38.5505C1261.65 38.992 1262.01 39.35 1262.45 39.35Z" fill="#4FBFA5"/>
</g>
<defs>
<linearGradient id="paint0_linear_20_5" x1="77.4998" y1="73.3124" x2="77.4998" y2="30.2607" gradientUnits="userSpaceOnUse">
<stop stop-color="#4FBFA5"/>
<stop offset="1" stop-color="#006A65"/>
</linearGradient>
<radialGradient id="paint1_radial_20_5" cx="0" cy="0" r="1" gradientUnits="userSpaceOnUse" gradientTransform="translate(76.3103 22.501) scale(4.80728 4.8382)">
<stop stop-color="#4FBFA5"/>
<stop offset="1" stop-color="#00868A"/>
</radialGradient>
<linearGradient id="paint2_linear_20_5" x1="77.4998" y1="41.0817" x2="118" y2="41.0817" gradientUnits="userSpaceOnUse">
<stop stop-color="#4FBFA5"/>
<stop offset="1" stop-color="#00868A"/>
</linearGradient>
<linearGradient id="paint3_linear_20_5" x1="36.9996" y1="41.0817" x2="77.4998" y2="41.0817" gradientUnits="userSpaceOnUse">
<stop stop-color="#4FBFA5"/>
<stop offset="1" stop-color="#00868A"/>
</linearGradient>
<linearGradient id="paint4_linear_20_5" x1="64.8893" y1="46.9661" x2="75.467" y2="46.9661" gradientUnits="userSpaceOnUse">
<stop stop-color="#4FBFA5"/>
<stop offset="1" stop-color="#00868A"/>
</linearGradient>
<linearGradient id="paint5_linear_20_5" x1="78.8201" y1="63.5204" x2="82.9074" y2="63.5204" gradientUnits="userSpaceOnUse">
<stop stop-color="#00868A"/>
<stop offset="1" stop-color="#4FBFA5"/>
</linearGradient>
<linearGradient id="paint6_linear_20_5" x1="72.0922" y1="59.3643" x2="86.0061" y2="59.3643" gradientUnits="userSpaceOnUse">
<stop stop-color="#00868A"/>
<stop offset="1" stop-color="#4FBFA5"/>
</linearGradient>
<linearGradient id="paint7_linear_20_5" x1="68.9936" y1="51.1222" x2="90.1103" y2="51.1222" gradientUnits="userSpaceOnUse">
<stop stop-color="#4FBFA5"/>
<stop offset="1" stop-color="#00868A"/>
</linearGradient>
<clipPath id="clip0_20_5">
<rect x="1004" y="33" width="24" height="24" fill="white"/>
</clipPath>
<clipPath id="clip1_20_5">
<rect width="24" height="24" fill="white" transform="translate(1244 33)"/>
</clipPath>
</defs>
</svg>
